<?xml version="1.0" standalone="no"?>
<!DOCTYPE svg PUBLIC "-//W3C//DTD SVG 20010904//EN"
 "http://www.w3.org/TR/2001/REC-SVG-20010904/DTD/svg10.dtd">
<svg version="1.0" xmlns="http://www.w3.org/2000/svg"
 width="500.000000pt" height="499.000000pt" viewBox="0 0 500.000000 499.000000"
 preserveAspectRatio="xMidYMid meet">

<g transform="translate(0.000000,499.000000) scale(0.100000,-0.100000)"
 stroke="none">
<path d="M0 4980 c0 -5 18 -10 40 -10 22 0 40 5 40 10 0 6 -18 10 -40 10 -22
0 -40 -4 -40 -10z"/>
<path d="M2167 4888 c-10 -11 -17 -22 -14 -24 2 -2 12 5 22 16 23 26 16 33 -8
8z"/>
<path d="M2055 4889 c-4 -6 -5 -13 -2 -16 7 -7 27 6 27 18 0 12 -17 12 -25 -2z"/>
<path d="M2224 4862 c1 -17 5 -34 9 -38 10 -10 9 38 -2 55 -6 9 -8 4 -7 -17z"/>
<path d="M2090 4861 c0 -12 -89 -19 -124 -9 -19 5 -32 4 -37 -3 -3 -6 -9 -10
-13 -10 -7 1 -32 -7 -64 -20 -13 -5 -34 -9 -47 -9 -60 0 -197 -78 -262 -149
-13 -13 -23 -20 -23 -16 0 5 -7 0 -15 -11 -14 -18 -14 -18 -16 11 -1 30 -1 30
-9 5 l-8 -25 -7 22 c-10 32 -25 18 -25 -23 0 -36 8 -42 28 -22 9 9 12 9 12 0
0 -7 -4 -12 -9 -12 -5 0 -12 -11 -15 -25 -4 -14 -17 -30 -29 -34 -13 -5 -29
-16 -36 -25 -15 -17 -36 -22 -26 -6 3 6 1 10 -5 10 -7 0 -10 -6 -7 -14 3 -8
-4 -24 -16 -37 -12 -13 -21 -26 -20 -29 1 -3 -7 -6 -17 -6 -10 0 -16 4 -14 8
3 4 -16 7 -43 7 -29 -1 -37 -4 -20 -6 18 -3 27 -10 27 -23 0 -10 5 -22 10 -25
23 -14 1 -95 -26 -95 -4 0 -3 5 4 12 8 8 6 16 -10 30 -12 10 -28 18 -37 18
-10 0 -7 -5 9 -13 20 -10 24 -19 21 -42 -6 -51 -81 -93 -81 -45 0 16 7 20 35
20 28 0 35 4 35 20 0 15 -7 20 -25 20 -14 0 -28 -6 -31 -14 -3 -8 -12 -12 -20
-9 -18 7 -20 -77 -2 -96 11 -11 10 -12 -1 -6 -10 6 -12 2 -6 -14 6 -19 3 -21
-39 -21 -44 0 -46 -1 -46 -29 0 -28 0 -28 -40 -18 -28 8 -40 17 -40 29 0 16
-10 18 -79 18 -71 0 -82 2 -95 22 -21 30 -22 1 -1 -38 8 -16 15 -36 15 -45 0
-9 7 -19 15 -23 8 -3 15 -12 15 -21 0 -11 11 -15 45 -15 50 0 58 -15 25 -45
-13 -12 -20 -14 -20 -6 0 9 -14 12 -45 9 -41 -3 -46 -1 -51 19 -8 30 -31 30
-37 1 l-4 -23 -2 23 c-1 21 -21 33 -21 12 0 -5 -18 -10 -40 -10 -22 0 -40 5
-40 10 0 6 18 10 40 10 l40 0 0 40 c0 22 -4 40 -9 40 -4 0 -14 54 -21 120 -11
105 -15 120 -31 120 -17 0 -19 9 -19 80 l0 80 -40 0 c-22 0 -40 4 -40 9 0 5
-9 11 -20 14 -11 3 -20 10 -20 17 0 7 9 14 20 17 11 3 20 14 20 24 0 15 7 19
40 19 22 0 40 5 40 10 0 6 33 10 80 10 72 0 80 2 80 19 0 15 8 21 33 23 l32 4
-30 13 c-16 7 -57 15 -90 17 -33 2 -94 9 -135 14 -41 5 -118 12 -170 15 -52 2
-106 7 -120 10 -14 3 -68 7 -120 10 -156 8 -186 15 -176 41 3 8 -1 14 -9 14
-13 0 -15 -297 -15 -2405 l0 -2405 1035 0 c886 0 1035 2 1035 14 0 8 4 16 9
18 5 1 7 16 4 31 -4 21 -8 25 -14 15 -7 -10 -9 -9 -9 5 0 11 -7 34 -16 53 -18
38 -10 60 11 31 17 -24 25 -11 34 57 6 46 5 53 -8 51 -9 -2 -19 -4 -23 -4 -5
-1 -8 -9 -8 -18 0 -10 -6 -25 -13 -35 -12 -14 -14 -13 -26 15 -7 18 -19 46
-26 62 -23 52 -32 99 -27 133 3 25 1 32 -12 32 -12 0 -16 10 -16 41 0 34 -6
47 -35 76 -19 19 -35 41 -35 49 0 8 -4 14 -8 14 -11 0 -35 88 -38 138 -1 32 1
41 9 33 16 -16 34 -14 41 5 4 11 2 15 -8 11 -10 -4 -13 -1 -9 10 3 8 0 19 -7
23 -14 9 -4 70 12 70 6 0 8 12 5 30 -4 17 -2 32 5 36 7 5 9 2 4 -7 -4 -8 -1
-6 7 4 11 13 16 15 20 5 2 -7 3 14 2 47 -2 33 -8 73 -14 89 -7 16 -13 37 -14
48 -2 10 -11 28 -20 39 -10 11 -15 25 -11 30 3 6 -3 24 -15 40 -17 23 -19 30
-8 35 7 2 14 11 14 19 0 11 -4 12 -14 4 -15 -13 -26 7 -21 37 2 13 -3 19 -15
17 -14 -1 -18 4 -14 19 4 15 3 17 -8 8 -12 -10 -14 -6 -12 22 4 41 51 113 75
113 11 0 16 6 14 19 -4 19 -3 19 23 2 15 -10 38 -16 51 -13 14 2 27 1 30 -4 2
-4 12 -5 20 -2 11 4 12 9 5 16 -6 6 -11 28 -11 49 l0 38 38 -21 c20 -12 42
-25 48 -30 6 -5 25 -10 43 -11 49 -4 60 -23 62 -111 2 -43 6 -80 10 -83 11 -6
29 30 29 55 0 20 9 41 32 81 5 8 14 27 21 43 12 28 47 38 47 12 0 -8 -4 -15
-10 -15 -5 0 -10 -4 -10 -10 0 -15 14 -12 37 9 12 11 23 18 25 15 3 -2 26 4
52 13 l48 18 20 -28 c13 -18 26 -26 37 -22 26 8 74 -71 67 -113 -3 -19 -1 -30
5 -27 5 4 9 2 9 -4 0 -5 -4 -13 -10 -16 -12 -8 -13 -85 -1 -85 11 0 52 -76 57
-107 2 -12 0 -25 -6 -28 -5 -3 -10 -19 -10 -35 0 -19 -10 -39 -27 -56 -17 -16
-21 -24 -11 -21 9 3 28 -3 42 -14 14 -11 30 -18 34 -15 5 3 9 -57 10 -132 1
-75 2 -150 2 -167 1 -37 -22 -161 -33 -171 -4 -4 -7 -20 -7 -36 0 -16 -5 -39
-12 -51 -7 -12 -13 -35 -14 -52 -1 -16 -12 -55 -24 -85 -12 -30 -24 -64 -27
-75 -4 -11 -9 -22 -13 -25 -3 -3 -11 -45 -18 -93 -13 -100 -16 -107 -43 -107
-12 0 -19 -7 -19 -20 0 -11 -4 -20 -10 -20 -5 0 -10 -7 -10 -15 0 -13 151 -15
1295 -15 l1295 0 0 1925 c0 1918 0 1925 -20 1925 -18 0 -20 -7 -20 -70 0 -63
-2 -70 -20 -70 -18 0 -20 -7 -20 -80 0 -73 2 -80 20 -80 17 0 20 -7 20 -40 l0
-40 -40 0 -40 0 0 -40 c0 -33 -3 -40 -20 -40 -18 0 -20 7 -20 80 0 73 -2 80
-20 80 -18 0 -20 7 -20 80 0 47 4 80 10 80 6 0 10 18 10 40 0 22 -4 40 -10 40
-6 0 -10 33 -10 80 l0 80 50 0 50 0 0 40 c0 38 -2 40 -30 40 l-30 0 0 80 c0
73 2 80 20 80 17 0 20 7 20 40 0 22 5 40 10 40 6 0 10 18 10 40 0 29 4 40 15
40 8 0 15 9 15 20 0 15 -7 20 -25 20 -18 0 -25 5 -25 20 0 16 7 20 38 21 36 1
35 2 -13 11 -27 6 -81 11 -120 12 l-70 1 -3 -38 c-3 -37 -22 -43 -22 -6 0 10
-4 19 -10 19 -9 0 -11 -21 -12 -130 0 -25 -6 -56 -13 -70 -23 -47 -31 -85 -24
-118 4 -21 2 -43 -6 -59 -8 -16 -10 -35 -5 -52 9 -33 1 -131 -11 -131 -5 0 -9
-144 -9 -320 l0 -320 -30 0 c-28 0 -30 2 -30 40 0 22 5 40 10 40 6 0 10 18 10
40 0 33 -4 40 -19 40 -16 0 -20 -11 -26 -80 -5 -57 -11 -80 -20 -80 -15 0 -22
-50 -16 -117 3 -43 3 -43 42 -43 l39 0 0 -320 c0 -313 0 -320 -20 -320 -18 0
-20 -7 -20 -80 0 -73 -2 -80 -20 -80 -17 0 -19 8 -22 78 l-3 77 -69 3 c-38 2
-73 -1 -79 -7 -5 -5 -11 -29 -12 -53 -1 -24 0 -37 2 -30 3 6 11 12 19 12 10 0
14 -12 14 -40 l0 -40 45 0 45 0 0 -93 c0 -81 -3 -96 -20 -112 -24 -22 -26 -35
-5 -35 8 0 15 -4 15 -9 0 -5 -7 -14 -15 -21 -10 -8 -15 -31 -15 -71 0 -51 -3
-59 -19 -59 -16 0 -19 -11 -25 -69 -4 -38 -5 -79 -2 -92 6 -24 -31 -79 -53
-79 -15 0 -61 -49 -61 -65 0 -8 -4 -15 -10 -15 -5 0 -10 -18 -10 -40 0 -38 -2
-40 -30 -40 -28 0 -30 2 -30 40 0 33 -3 40 -20 40 -22 0 -25 12 -9 41 10 20 4
59 -10 59 -5 0 -11 -21 -14 -46 -2 -26 -9 -49 -14 -53 -6 -3 -15 -33 -21 -66
-19 -104 -61 -307 -83 -394 -11 -46 -18 -90 -15 -97 3 -7 -4 -36 -15 -66 -10
-29 -19 -63 -19 -75 0 -12 -5 -23 -10 -25 -6 -2 -13 -21 -16 -43 -12 -91 -15
-105 -25 -100 -10 7 -2 103 11 120 4 6 12 51 19 100 12 93 28 156 41 165 4 3
5 23 1 45 -6 35 -8 37 -15 18 -4 -13 -4 -32 -1 -43 4 -12 2 -20 -6 -20 -8 0
-10 15 -7 49 3 28 1 56 -3 63 -6 9 -9 3 -11 -17 -4 -69 -3 -90 6 -96 5 -4 6
-13 4 -20 -9 -27 -31 34 -29 84 0 27 -6 62 -14 77 -16 32 -21 115 -6 105 5 -3
12 -1 16 5 4 6 -7 10 -27 10 -18 0 -28 -4 -22 -8 9 -5 8 -11 -2 -20 -11 -10
-14 -10 -14 1 0 8 -7 20 -15 27 -13 11 -15 8 -15 -14 0 -14 -3 -26 -6 -26 -13
0 -34 30 -34 48 0 11 -7 33 -15 48 -9 18 -15 56 -15 97 0 54 -4 74 -20 94 -11
14 -20 32 -20 39 0 8 -4 14 -9 14 -5 0 -12 11 -15 25 -4 14 -11 25 -17 25 -6
0 -8 15 -4 38 l6 37 -24 -49 c-16 -33 -26 -45 -31 -37 -11 18 3 177 20 229 8
23 14 63 14 87 0 25 5 45 10 45 6 0 10 20 10 44 0 24 6 59 14 77 8 19 17 61
21 94 4 33 16 100 26 150 10 49 19 105 19 125 0 20 4 40 9 46 10 9 23 99 22
147 -1 15 4 27 10 27 7 0 10 16 7 45 -2 34 0 45 11 45 11 0 12 11 8 49 -3 29
-2 51 4 53 5 2 14 44 19 93 5 50 14 113 19 140 15 74 39 211 52 285 5 36 12
73 14 83 2 9 -3 17 -10 17 -9 0 -15 -15 -18 -42 l-4 -43 -1 43 c-1 23 -7 42
-13 42 -8 0 -10 17 -7 50 3 30 1 50 -5 50 -6 0 -7 -30 -3 -83 4 -45 4 -108 0
-140 l-7 -57 -38 0 -39 0 0 50 0 50 40 0 c33 0 40 3 40 20 0 18 -7 20 -80 20
-73 0 -80 -2 -80 -20 0 -17 -7 -20 -40 -20 -33 0 -40 3 -40 20 0 17 -7 20 -39
20 -30 0 -40 4 -44 20 -4 15 -14 20 -41 20 -29 0 -36 4 -36 20 0 13 -7 20 -20
20 -13 0 -20 7 -20 20 0 13 -7 20 -20 20 -13 0 -20 -7 -20 -20 0 -13 7 -20 20
-20 15 0 20 -7 20 -28 0 -50 -48 -71 -72 -32 -7 11 -21 20 -30 20 -13 0 -18 8
-18 28 0 16 -9 55 -19 88 -11 32 -23 92 -27 132 -3 39 -11 72 -15 72 -5 0 -9
-36 -9 -80 0 -63 -3 -80 -14 -80 -10 0 -16 13 -19 38 -2 20 -2 2 1 -40 3 -59
1 -78 -9 -78 -7 0 -23 -10 -36 -22 -23 -21 -23 -21 -23 -1 0 11 -7 26 -16 34
-13 11 -13 15 -2 23 26 21 41 63 34 103 -11 68 -12 123 -1 113 5 -6 23 -10 40
-10 l31 0 2 63 c2 52 -1 64 -18 75 -17 10 -20 10 -20 -5 0 -13 -3 -14 -12 -5
-7 7 -20 12 -30 12 -10 0 -18 5 -18 11 0 6 -7 9 -15 5 -8 -3 -15 -1 -15 4 0 5
9 12 20 15 25 8 26 21 2 34 -10 5 -18 19 -19 31 -1 13 -11 32 -22 44 -12 13
-22 37 -22 57 l-1 34 -8 -30 c-6 -25 -16 -18 -11 9 4 20 -12 47 -24 42 -9 -3
-12 0 -9 8 3 7 -3 16 -14 18 -21 6 -57 106 -54 151 2 18 -3 27 -12 27 -8 0
-17 6 -20 13 -3 6 -4 0 -1 -15 7 -37 -4 -35 -37 6 l-27 34 30 6 c34 6 30 26
-4 26 -33 0 -67 11 -67 21 0 5 7 9 15 9 8 0 15 5 15 11 0 6 -9 8 -22 3 -13 -3
-20 -3 -16 1 5 5 -6 17 -24 28 -24 14 -28 21 -18 27 11 7 8 11 -13 19 -15 6
-27 15 -27 20 0 5 -9 13 -20 16 -23 7 -27 35 -6 35 8 0 18 5 22 11 5 8 -1 10
-18 7 -21 -4 -24 -1 -20 14 3 12 -1 18 -12 18 -10 0 -14 -4 -11 -10 3 -6 -4
-10 -17 -10 -16 0 -19 3 -10 9 10 6 4 10 -18 15 -50 10 -140 7 -140 -4 0 -16
-39 12 -46 32 -7 22 -30 24 -37 3 -4 -9 -14 -12 -29 -8 -13 3 -42 5 -65 4 -23
0 -44 3 -47 8 -3 5 -14 7 -24 5 -9 -3 -29 6 -44 21 -28 25 -48 32 -48 16z
m527 -131 c7 -11 9 -21 3 -25 -9 -6 -13 -1 -23 28 -9 23 5 22 20 -3z m-1870
-56 c-3 -3 -12 -4 -19 -1 -8 3 -5 6 6 6 11 1 17 -2 13 -5z m-457 -154 c0 -5
-4 -10 -10 -10 -5 0 -10 5 -10 10 0 6 5 10 10 10 6 0 10 -4 10 -10z m270 -26
c0 -9 -7 -14 -17 -12 -25 5 -28 28 -4 28 12 0 21 -6 21 -16z m4200 -134 c0 -5
-9 -10 -20 -10 -11 0 -20 5 -20 10 0 6 9 10 20 10 11 0 20 -4 20 -10z m-44
-131 c1 -44 1 -44 -3 -4 -3 22 -10 44 -16 48 -8 6 -7 7 3 4 10 -2 15 -18 16
-48z m-4399 -134 c-2 -11 -5 -3 -6 17 0 20 -5 40 -11 43 -12 7 -13 48 -2 59 8
9 24 -90 19 -119z m-39 44 c13 -56 16 -126 5 -115 -11 11 -32 97 -33 134 0 49
15 39 28 -19z m882 21 c0 -5 -5 -10 -11 -10 -5 0 -7 5 -4 10 3 6 8 10 11 10 2
0 4 -4 4 -10z m14 -34 c-3 -14 -10 -23 -15 -21 -4 3 -3 17 3 30 14 31 21 26
12 -9z m-34 -91 c-7 -8 -18 -15 -24 -15 -6 0 -3 7 7 14 9 7 17 24 16 37 0 21
-1 21 -8 6 -6 -17 -8 -17 -20 -3 -11 13 -11 17 3 22 9 3 17 14 17 23 1 9 6 -3
12 -26 7 -32 7 -46 -3 -58z m-235 35 c0 -7 -6 -15 -12 -17 -8 -3 -13 4 -13 17
0 13 5 20 13 18 6 -3 12 -11 12 -18z m98 -10 c16 0 -14 -20 -30 -20 -7 0 -13
7 -13 16 0 11 5 14 16 10 9 -3 21 -6 27 -6z m52 1 c3 -5 1 -12 -5 -16 -5 -3
-10 1 -10 9 0 18 6 21 15 7z m3582 -63 c-3 -7 -5 -2 -5 12 0 14 2 19 5 13 2
-7 2 -19 0 -25z m-3487 -4 c0 -14 -3 -15 -17 -3 -10 7 -20 15 -22 16 -2 2 5 3
17 3 14 0 22 -6 22 -16z m1972 -28 c3 -14 1 -31 -3 -38 -6 -9 -8 -7 -7 7 1 11
-2 31 -6 44 -5 15 -4 21 2 17 5 -3 12 -17 14 -30z m-2242 -31 c0 -8 -9 -15
-20 -15 -15 0 -20 -7 -20 -25 0 -18 -5 -25 -20 -25 -16 0 -20 7 -20 30 0 23 4
30 20 30 11 0 20 5 20 10 0 6 9 10 20 10 11 0 20 -7 20 -15z m2280 -25 c0 -11
-4 -20 -10 -20 -5 0 -10 9 -10 20 0 11 5 20 10 20 6 0 10 -9 10 -20z m-2193
-52 c-3 -8 -6 -5 -6 6 -1 11 2 17 5 13 3 -3 4 -12 1 -19z m48 12 c-3 -5 -11
-10 -16 -10 -6 0 -7 5 -4 10 3 6 11 10 16 10 6 0 7 -4 4 -10z m2072 -12 c-3
-8 -6 -5 -6 6 -1 11 2 17 5 13 3 -3 4 -12 1 -19z m-2100 -30 c-3 -8 -6 -5 -6
6 -1 11 2 17 5 13 3 -3 4 -12 1 -19z m2126 -76 c3 -24 1 -40 -4 -36 -5 3 -9
24 -9 46 0 51 5 47 13 -10z m127 -81 c0 -30 -4 -40 -20 -44 -21 -5 -26 15 -14
61 11 38 34 27 34 -17z m-3180 -1 c0 -5 -4 -10 -10 -10 -5 0 -10 5 -10 10 0 6
5 10 10 10 6 0 10 -4 10 -10z m917 -32 c-3 -8 -6 -5 -6 6 -1 11 2 17 5 13 3
-3 4 -12 1 -19z m2123 -38 c0 -16 4 -39 8 -52 10 -27 2 -62 -14 -65 -7 -1 -14
7 -17 18 -4 16 -3 18 9 8 11 -9 14 -7 14 10 0 12 -4 19 -10 16 -5 -3 -10 -4
-10 -1 0 2 -3 13 -6 23 -5 15 -4 15 5 3 9 -13 11 -11 11 7 0 12 -4 33 -10 47
-7 20 -6 24 5 19 8 -3 15 -18 15 -33z m99 -67 l0 -48 -16 32 c-13 26 -14 35
-3 48 18 22 20 20 19 -32z m-2989 -147 c0 -3 -4 -8 -10 -11 -5 -3 -10 -1 -10
4 0 6 5 11 10 11 6 0 10 -2 10 -4z m3647 -18 c-3 -8 -6 -5 -6 6 -1 11 2 17 5
13 3 -3 4 -12 1 -19z m-3017 -178 c0 -5 -4 -10 -10 -10 -5 0 -10 5 -10 10 0 6
5 10 10 10 6 0 10 -4 10 -10z m1360 -105 c0 -52 -4 -95 -9 -95 -11 0 -25 142
-16 170 14 46 25 14 25 -75z m2390 -744 c0 -5 -7 -14 -15 -21 -13 -10 -15 -9
-15 9 0 12 6 21 15 21 8 0 15 -4 15 -9z m-3963 -269 c8 -5 9 -12 2 -22 -8 -13
-10 -13 -19 0 -18 27 -9 39 17 22z m49 -54 c-3 -13 -6 -26 -6 -30 0 -5 -6 -8
-14 -8 -17 0 -27 47 -12 54 27 11 38 6 32 -16z m1863 -135 c1 -49 3 -102 4
-120 0 -17 -6 -39 -13 -48 -12 -15 -14 -15 -24 3 -19 33 -53 72 -64 72 -6 0
-14 -13 -20 -28 -11 -33 -89 -126 -108 -130 -16 -4 -19 24 -3 33 17 11 31 57
20 68 -12 12 46 90 59 82 11 -7 45 43 36 52 -10 10 15 33 35 33 11 0 19 5 19
10 0 10 44 60 53 60 1 0 4 -39 6 -87z m-789 47 c14 -16 30 -30 37 -30 19 0 16
11 -9 37 -16 18 -18 22 -6 18 23 -9 53 -55 36 -55 -9 -1 -8 -5 3 -13 9 -7 18
-19 22 -27 4 -12 6 -12 6 2 1 14 7 11 32 -11 17 -16 43 -35 57 -42 73 -37 146
-99 169 -143 l15 -28 -35 26 c-18 14 -37 26 -41 26 -7 0 -25 13 -54 41 -9 9
-28 22 -41 29 -21 11 -27 8 -60 -22 -20 -19 -49 -44 -66 -55 -16 -12 -54 -43
-83 -71 -29 -27 -62 -52 -73 -55 -20 -5 -20 -5 -3 14 16 18 16 19 -2 20 -18 0
-18 1 1 8 11 5 23 7 26 5 4 -2 9 4 11 14 4 12 -7 27 -33 47 -23 17 -35 32 -28
36 6 3 10 8 10 10 0 2 2 14 5 27 6 22 19 29 27 14 4 -6 34 -7 81 -3 5 1 4 7
-1 14 -15 19 -22 57 -11 57 5 0 12 -9 15 -20 6 -21 18 -26 28 -11 3 5 -7 19
-21 30 -15 12 -24 27 -21 35 4 10 0 12 -14 9 -17 -5 -19 -2 -14 20 4 14 2 34
-4 45 -10 18 -6 32 8 32 4 0 17 -13 31 -30z m-1028 -27 c-4 -55 -12 -54 -12 2
0 27 3 45 7 41 4 -4 6 -23 5 -43z m1842 -208 c-4 -8 -8 -15 -10 -15 -2 0 -4 7
-4 15 0 8 4 15 10 15 5 0 7 -7 4 -15z m-921 -47 c6 -21 2 -36 -7 -27 -10 11
-16 49 -8 49 5 0 12 -10 15 -22z m917 2 c0 -5 -5 -10 -11 -10 -5 0 -7 5 -4 10
3 6 8 10 11 10 2 0 4 -4 4 -10z m1026 -88 c-11 -10 -15 4 -8 28 l7 25 3 -23
c2 -13 1 -26 -2 -30z m-991 -1 c3 -5 1 -12 -5 -16 -5 -3 -10 1 -10 9 0 18 6
21 15 7z m-835 -32 c0 -24 -23 -21 -28 4 -2 10 3 17 12 17 10 0 16 -9 16 -21z
m1952 -24 c4 -53 -7 -58 -26 -13 -10 23 -11 35 -2 44 19 22 24 16 28 -31z
m-42 -78 c0 -18 -2 -19 -10 -7 -13 20 -13 43 0 35 6 -3 10 -16 10 -28z m40
-58 c0 -11 -4 -17 -10 -14 -5 3 -10 13 -10 21 0 8 5 14 10 14 6 0 10 -9 10
-21z m357 -71 c-3 -8 -6 -5 -6 6 -1 11 2 17 5 13 3 -3 4 -12 1 -19z m-2247
-101 c0 -16 -18 3 -23 25 -6 22 -5 22 8 4 8 -11 15 -24 15 -29z m2017 21 c-3
-8 -6 -5 -6 6 -1 11 2 17 5 13 3 -3 4 -12 1 -19z m240 -10 c-3 -8 -6 -5 -6 6
-1 11 2 17 5 13 3 -3 4 -12 1 -19z m-227 -53 c0 -5 -5 -3 -10 5 -5 8 -10 20
-10 25 0 6 5 3 10 -5 5 -8 10 -19 10 -25z m-2020 -229 c0 -8 -7 -16 -15 -20
-13 -4 -14 -2 -5 14 13 23 20 26 20 6z m0 -86 c0 -5 -5 -10 -11 -10 -5 0 -7 5
-4 10 3 6 8 10 11 10 2 0 4 -4 4 -10z m877 -112 c-3 -8 -6 -5 -6 6 -1 11 2 17
5 13 3 -3 4 -12 1 -19z m1163 -208 c0 -5 -2 -10 -4 -10 -3 0 -8 5 -11 10 -3 6
-1 10 4 10 6 0 11 -4 11 -10z m-1191 -76 c0 11 3 17 6 15 2 -3 1 -25 -4 -50
-8 -40 -9 -41 -10 -11 -1 18 -4 31 -9 28 -4 -2 -5 14 -3 37 l5 42 7 -40 c3
-22 7 -31 8 -21z m-68 13 c-10 -9 -11 -8 -5 6 3 10 9 15 12 12 3 -3 0 -11 -7
-18z m4 -50 c-8 -20 -15 -46 -15 -58 0 -12 -6 -27 -14 -33 -7 -6 -17 -24 -20
-41 -7 -28 -7 -29 8 -10 12 16 17 18 27 8 11 -11 10 -13 -4 -13 -9 0 -17 -5
-17 -11 0 -6 -6 -17 -14 -25 -18 -17 -27 -5 -28 35 -1 37 77 199 90 187 1 -2
-5 -19 -13 -39z m-676 -82 c0 -5 -6 -1 -14 9 -8 11 -15 24 -15 30 0 5 7 1 15
-10 8 -10 14 -23 14 -29z m1891 15 c0 -5 -4 -10 -10 -10 -5 0 -10 5 -10 10 0
6 5 10 10 10 6 0 10 -4 10 -10z m-1906 -60 c10 -13 9 -13 -6 -1 -10 7 -18 21
-17 30 0 13 1 14 6 1 3 -8 11 -22 17 -30z m665 -81 c-13 -10 -28 -17 -33 -16
-5 1 -13 -12 -18 -30 -12 -47 -28 -51 -28 -6 1 39 24 85 32 62 5 -14 57 16 59
35 1 6 4 2 6 -8 3 -12 -3 -26 -18 -37z m1001 -99 c0 -5 -2 -10 -4 -10 -3 0 -8
5 -11 10 -3 6 -1 10 4 10 6 0 11 -4 11 -10z m77 -16 c-9 -9 -28 6 -21 18 4 6
10 6 17 -1 6 -6 8 -13 4 -17z"/>
<path d="M2375 1748 c6 -16 4 -20 -8 -15 -11 4 -14 2 -10 -9 7 -19 19 -18 27
2 9 24 7 44 -5 44 -6 0 -8 -9 -4 -22z"/>
<path d="M1680 1664 c0 -8 5 -12 10 -9 6 3 10 10 10 16 0 5 -4 9 -10 9 -5 0
-10 -7 -10 -16z"/>
<path d="M1720 1664 c0 -8 5 -12 10 -9 6 3 10 10 10 16 0 5 -4 9 -10 9 -5 0
-10 -7 -10 -16z"/>
<path d="M1710 1630 c0 -5 4 -10 9 -10 6 0 13 5 16 10 3 6 -1 10 -9 10 -9 0
-16 -4 -16 -10z"/>
<path d="M565 4780 c-3 -5 -2 -10 4 -10 5 0 13 5 16 10 3 6 2 10 -4 10 -5 0
-13 -4 -16 -10z"/>
<path d="M2936 4762 c-2 -4 21 -8 52 -8 38 -1 50 2 37 7 -26 10 -83 11 -89 1z"/>
<path d="M3298 4743 c12 -2 32 -2 45 0 12 2 2 4 -23 4 -25 0 -35 -2 -22 -4z"/>
<path d="M3580 4740 c0 -12 8 -12 35 0 18 8 17 9 -7 9 -16 1 -28 -3 -28 -9z"/>
<path d="M3760 4730 c0 -5 9 -10 21 -10 11 0 17 5 14 10 -3 6 -13 10 -21 10
-8 0 -14 -4 -14 -10z"/>
<path d="M3698 4703 c12 -2 32 -2 45 0 12 2 2 4 -23 4 -25 0 -35 -2 -22 -4z"/>
<path d="M960 4681 c0 -20 6 -21 78 -20 96 1 137 13 77 24 -22 4 -48 9 -57 12
-20 5 -25 -13 -5 -20 6 -3 0 -6 -15 -6 -14 -1 -28 3 -30 8 -1 4 -13 12 -25 15
-19 6 -23 4 -23 -13z"/>
<path d="M1198 4673 c17 -2 47 -2 65 0 17 2 3 4 -33 4 -36 0 -50 -2 -32 -4z"/>
<path d="M2780 4676 c0 -9 30 -14 35 -6 4 6 -3 10 -14 10 -12 0 -21 -2 -21 -4z"/>
<path d="M4180 4661 c0 -6 5 -13 10 -16 6 -3 10 1 10 9 0 9 -4 16 -10 16 -5 0
-10 -4 -10 -9z"/>
<path d="M4081 4644 c0 -11 3 -14 6 -6 3 7 2 16 -1 19 -3 4 -6 -2 -5 -13z"/>
<path d="M4215 4637 c-4 -10 -5 -21 -1 -24 10 -10 18 4 13 24 -4 17 -4 17 -12
0z"/>
<path d="M4240 4640 c0 -5 12 -10 26 -10 14 0 23 4 19 10 -3 6 -15 10 -26 10
-10 0 -19 -4 -19 -10z"/>
<path d="M4105 4620 c-3 -11 -9 -20 -13 -20 -4 0 -8 -18 -8 -40 -2 -43 9 -52
26 -21 16 31 13 54 -7 47 -13 -5 -12 -1 5 17 14 15 19 27 13 31 -5 4 -12 -3
-16 -14z"/>
<path d="M1200 4610 c0 -17 7 -20 40 -20 33 0 40 3 40 20 0 17 -7 20 -40 20
-33 0 -40 -3 -40 -20z"/>
<path d="M4300 4610 c0 -5 12 -13 28 -16 36 -9 54 -24 48 -40 -3 -8 0 -11 10
-7 9 3 14 -2 14 -16 0 -12 6 -21 13 -19 24 5 67 -13 67 -27 0 -12 -14 -15 -59
-15 -103 0 -181 12 -181 27 0 10 -11 13 -42 11 -37 -3 -41 -1 -43 22 -2 14 4
33 13 43 14 15 13 17 -1 17 -18 0 -32 -39 -24 -69 2 -10 0 -26 -6 -36 -10 -19
-23 -100 -33 -222 -6 -65 -5 -73 11 -73 13 0 15 5 9 18 -13 30 -16 89 -5 96 7
5 11 -7 11 -33 0 -57 18 -51 23 7 3 39 4 36 5 -20 l2 -68 40 0 c29 0 40 -4 40
-15 0 -11 -11 -15 -40 -15 l-40 0 0 -65 c0 -51 3 -65 15 -65 11 0 15 -11 15
-40 0 -29 -4 -40 -15 -40 -8 0 -15 -4 -15 -10 0 -5 -7 -10 -15 -10 -8 0 -15 5
-15 10 0 6 -7 10 -16 10 -13 0 -14 -3 -4 -15 7 -8 10 -26 8 -40 -4 -21 -2 -25
16 -24 11 1 58 1 104 1 l82 -2 0 -80 0 -80 -50 0 -50 0 0 -80 c0 -47 4 -80 10
-80 6 0 10 11 10 25 0 31 11 32 47 0 27 -24 27 -24 6 -25 -20 0 -23 -5 -23
-40 0 -29 -4 -40 -15 -40 -11 0 -15 -11 -15 -40 l0 -40 40 0 40 0 0 -40 0 -40
40 0 c40 0 40 0 40 39 0 22 4 41 10 43 12 4 -9 78 -22 78 -4 0 -8 -18 -8 -40
0 -33 -4 -40 -19 -40 -15 0 -20 9 -23 46 -3 40 0 49 22 65 14 10 30 23 37 29
8 6 13 6 15 -2 3 -7 7 -5 11 5 5 15 -1 17 -48 17 l-55 0 0 80 c0 73 2 80 20
80 17 0 20 -7 20 -40 l0 -40 40 0 40 0 0 40 c0 29 4 40 15 40 9 0 20 10 25 23
7 19 9 16 10 -18 1 -37 2 -38 11 -15 7 17 7 36 -1 60 -11 33 -8 155 3 166 3 3
11 -5 18 -17 12 -23 12 -23 19 -4 4 11 5 46 2 78 -5 59 11 112 30 101 5 -4 9
2 7 12 -1 11 1 27 6 37 4 9 5 26 2 37 -3 11 -1 20 4 20 5 0 9 11 9 25 0 18 -5
25 -20 25 -11 0 -20 7 -20 15 0 8 9 15 20 15 11 0 20 -4 20 -10 0 -5 9 -10 20
-10 18 0 20 7 22 83 2 114 1 112 21 109 27 -5 20 22 -10 36 -38 17 -63 15 -64
-5 -1 -12 -3 -10 -8 6 -7 28 -50 44 -92 37 -21 -4 -29 1 -40 22 -17 33 -29 41
-94 64 -58 21 -55 21 -55 8z m-153 -172 c-3 -7 -5 -2 -5 12 0 14 2 19 5 13 2
-7 2 -19 0 -25z m333 -128 l0 -120 -80 0 -80 0 0 120 0 120 80 0 80 0 0 -120z
m-331 25 c0 -5 -4 -3 -9 5 -5 8 -9 22 -9 30 0 16 17 -16 18 -35z m448 19 c-3
-3 -12 -4 -19 -1 -8 3 -5 6 6 6 11 1 17 -2 13 -5z"/>
<path d="M2897 4604 c-3 -4 -2 -15 4 -26 6 -11 8 -31 5 -44 -5 -17 -2 -24 8
-24 21 0 30 37 16 71 -12 29 -21 35 -33 23z"/>
<path d="M2818 4563 c7 -3 16 -2 19 1 4 3 -2 6 -13 5 -11 0 -14 -3 -6 -6z"/>
<path d="M1365 4550 c-8 -13 15 -13 35 0 12 8 11 10 -7 10 -12 0 -25 -4 -28
-10z"/>
<path d="M1310 4500 c0 -5 5 -10 10 -10 6 0 10 5 10 10 0 6 -4 10 -10 10 -5 0
-10 -4 -10 -10z"/>
<path d="M2845 4500 c-3 -5 -1 -10 4 -10 6 0 11 5 11 10 0 6 -2 10 -4 10 -3 0
-8 -4 -11 -10z"/>
<path d="M1293 4463 c9 -2 23 -2 30 0 6 3 -1 5 -18 5 -16 0 -22 -2 -12 -5z"/>
<path d="M1246 4337 c3 -10 9 -15 12 -12 3 3 0 11 -7 18 -10 9 -11 8 -5 -6z"/>
<path d="M1120 4327 c0 -19 10 -27 25 -20 17 6 8 33 -11 33 -8 0 -14 -6 -14
-13z"/>
<path d="M720 4175 c0 -8 2 -15 4 -15 2 0 6 7 10 15 3 8 1 15 -4 15 -6 0 -10
-7 -10 -15z"/>
<path d="M3470 4128 c0 -16 48 -39 55 -28 7 11 -23 40 -41 40 -8 0 -14 -6 -14
-12z"/>
<path d="M730 4120 c0 -5 5 -10 10 -10 6 0 10 5 10 10 0 6 -4 10 -10 10 -5 0
-10 -4 -10 -10z"/>
<path d="M4565 4027 c-10 -63 -2 -78 11 -22 6 24 7 50 3 57 -4 6 -10 -9 -14
-35z"/>
<path d="M3120 4046 c0 -9 7 -16 16 -16 17 0 14 22 -4 28 -7 2 -12 -3 -12 -12z"/>
<path d="M4070 4053 c-1 -7 -3 -16 -4 -20 -1 -5 -8 -31 -15 -60 -7 -29 -11
-58 -8 -65 3 -7 6 -2 6 12 1 14 8 36 17 48 9 14 14 36 11 60 -2 20 -5 31 -7
25z"/>
<path d="M3560 4011 c0 -5 10 -18 23 -28 12 -10 29 -32 37 -47 8 -16 23 -34
32 -40 31 -19 31 2 1 41 -17 21 -35 48 -42 61 -11 21 -51 32 -51 13z"/>
<path d="M4073 3835 c0 -27 2 -38 4 -22 2 15 2 37 0 50 -2 12 -4 0 -4 -28z"/>
<path d="M4968 3873 c6 -2 18 -2 25 0 6 3 1 5 -13 5 -14 0 -19 -2 -12 -5z"/>
<path d="M4515 3836 c-4 -19 -5 -42 -2 -53 3 -10 5 -1 6 19 0 20 6 40 11 43
13 8 13 25 0 25 -5 0 -12 -15 -15 -34z"/>
<path d="M4840 3830 c0 -22 5 -40 10 -40 6 0 10 -18 10 -40 0 -22 5 -40 10
-40 6 0 10 33 10 80 0 73 -2 80 -20 80 -17 0 -20 -7 -20 -40z"/>
<path d="M4036 3825 c-8 -21 3 -65 16 -65 5 0 6 16 2 38 -8 45 -10 47 -18 27z"/>
<path d="M4552 3770 c0 -14 2 -19 5 -12 2 6 2 18 0 25 -3 6 -5 1 -5 -13z"/>
<path d="M4066 3725 c-3 -8 -1 -15 4 -15 6 0 10 7 10 15 0 8 -2 15 -4 15 -2 0
-6 -7 -10 -15z"/>
<path d="M4546 3707 c3 -10 9 -15 12 -12 3 3 0 11 -7 18 -10 9 -11 8 -5 -6z"/>
<path d="M3840 3685 c0 -8 7 -15 16 -15 14 0 14 3 4 15 -7 8 -14 15 -16 15 -2
0 -4 -7 -4 -15z"/>
<path d="M4532 3655 c0 -16 2 -22 5 -12 2 9 2 23 0 30 -3 6 -5 -1 -5 -18z"/>
<path d="M3638 3633 c23 -2 61 -2 85 0 23 2 4 4 -43 4 -47 0 -66 -2 -42 -4z"/>
<path d="M4511 3564 c0 -11 3 -14 6 -6 3 7 2 16 -1 19 -3 4 -6 -2 -5 -13z"/>
<path d="M4537 3527 c-5 -27 -6 -51 -3 -55 12 -12 17 7 14 54 l-3 49 -8 -48z"/>
<path d="M4451 3534 c0 -11 3 -14 6 -6 3 7 2 16 -1 19 -3 4 -6 -2 -5 -13z"/>
<path d="M4410 3488 c0 -10 4 -18 9 -18 5 0 12 -8 14 -17 4 -14 5 -15 6 -2 0
8 -6 24 -14 35 -13 17 -14 17 -15 2z"/>
<path d="M3961 3454 c0 -11 3 -14 6 -6 3 7 2 16 -1 19 -3 4 -6 -2 -5 -13z"/>
<path d="M3942 3365 c0 -16 2 -22 5 -12 2 9 2 23 0 30 -3 6 -5 -1 -5 -18z"/>
<path d="M3982 3365 c0 -16 2 -22 5 -12 2 9 2 23 0 30 -3 6 -5 -1 -5 -18z"/>
<path d="M4412 3340 c0 -19 2 -27 5 -17 2 9 2 25 0 35 -3 9 -5 1 -5 -18z"/>
<path d="M4400 3289 c0 -5 5 -7 10 -4 6 3 10 8 10 11 0 2 -4 4 -10 4 -5 0 -10
-5 -10 -11z"/>
<path d="M4405 3250 c-11 -18 5 -100 19 -100 7 0 13 14 13 33 1 17 3 41 5 52
3 21 -26 33 -37 15z"/>
<path d="M3912 3205 c0 -16 2 -22 5 -12 2 9 2 23 0 30 -3 6 -5 -1 -5 -18z"/>
<path d="M4363 3105 c0 -27 2 -38 4 -22 2 15 2 37 0 50 -2 12 -4 0 -4 -28z"/>
<path d="M3882 3040 c0 -19 2 -27 5 -17 2 9 2 25 0 35 -3 9 -5 1 -5 -18z"/>
<path d="M3866 2968 c-11 -44 -5 -65 9 -28 17 43 17 50 6 50 -5 0 -11 -10 -15
-22z"/>
<path d="M4460 2870 c0 -33 -3 -40 -20 -40 -17 0 -20 -7 -20 -40 0 -38 2 -40
30 -40 l30 0 0 80 c0 47 -4 80 -10 80 -5 0 -10 -18 -10 -40z"/>
<path d="M4500 2790 c0 -33 3 -40 20 -40 17 0 20 7 20 40 0 33 -3 40 -20 40
-17 0 -20 -7 -20 -40z"/>
<path d="M4483 2670 c0 -41 2 -58 4 -37 2 20 2 54 0 75 -2 20 -4 3 -4 -38z"/>
<path d="M4280 2360 c0 -5 5 -10 11 -10 5 0 7 5 4 10 -3 6 -8 10 -11 10 -2 0
-4 -4 -4 -10z"/>
<path d="M4280 2280 c0 -5 5 -10 11 -10 5 0 7 5 4 10 -3 6 -8 10 -11 10 -2 0
-4 -4 -4 -10z"/>
<path d="M3752 2210 c0 -14 2 -19 5 -12 2 6 2 18 0 25 -3 6 -5 1 -5 -13z"/>
<path d="M4167 2200 c-3 -11 -1 -23 4 -26 5 -3 9 6 9 20 0 31 -6 34 -13 6z"/>
<path d="M4313 2150 c0 -25 2 -35 4 -22 2 12 2 32 0 45 -2 12 -4 2 -4 -23z"/>
<path d="M3740 2121 c0 -6 4 -13 10 -16 6 -3 7 1 4 9 -7 18 -14 21 -14 7z"/>
<path d="M4221 2111 c-7 -5 -11 -15 -9 -22 3 -10 8 -7 17 9 13 24 12 26 -8 13z"/>
<path d="M4197 1993 c-4 -3 -7 -11 -7 -17 0 -6 5 -5 12 2 6 6 9 14 7 17 -3 3
-9 2 -12 -2z"/>
<path d="M3660 1885 c0 -5 5 -17 10 -25 5 -8 10 -10 10 -5 0 6 -5 17 -10 25
-5 8 -10 11 -10 5z"/>
<path d="M4151 1854 c0 -11 3 -14 6 -6 3 7 2 16 -1 19 -3 4 -6 -2 -5 -13z"/>
<path d="M3652 1825 c0 -16 2 -22 5 -12 2 9 2 23 0 30 -3 6 -5 -1 -5 -18z"/>
<path d="M4141 1767 c0 -32 -5 -56 -10 -53 -5 4 -7 -3 -4 -14 3 -11 9 -20 13
-20 14 0 19 52 11 100 l-8 45 -2 -58z"/>
<path d="M3672 1730 c0 -14 2 -19 5 -12 2 6 2 18 0 25 -3 6 -5 1 -5 -13z"/>
<path d="M4152 1650 c0 -14 2 -19 5 -12 2 6 2 18 0 25 -3 6 -5 1 -5 -13z"/>
<path d="M3893 1430 c0 -25 2 -35 4 -22 2 12 2 32 0 45 -2 12 -4 2 -4 -23z"/>
<path d="M3752 1440 c0 -14 2 -19 5 -12 2 6 2 18 0 25 -3 6 -5 1 -5 -13z"/>
<path d="M2482 1430 c0 -14 2 -19 5 -12 2 6 2 18 0 25 -3 6 -5 1 -5 -13z"/>
<path d="M1811 1414 c0 -11 3 -14 6 -6 3 7 2 16 -1 19 -3 4 -6 -2 -5 -13z"/>
<path d="M4011 1404 c0 -11 3 -14 6 -6 3 7 2 16 -1 19 -3 4 -6 -2 -5 -13z"/>
<path d="M3776 1379 c20 -23 24 -23 24 -5 0 7 -9 16 -21 19 -20 5 -20 5 -3
-14z"/>
<path d="M2070 1341 c0 -5 5 -13 10 -16 6 -3 10 -2 10 4 0 5 -4 13 -10 16 -5
3 -10 2 -10 -4z"/>
<path d="M2161 1315 c0 -41 24 -174 34 -183 4 -4 5 2 2 13 -3 11 -9 52 -13 90
-8 79 -23 131 -23 80z"/>
<path d="M1922 1295 c0 -16 2 -22 5 -12 2 9 2 23 0 30 -3 6 -5 -1 -5 -18z"/>
<path d="M2191 1104 c0 -11 3 -14 6 -6 3 7 2 16 -1 19 -3 4 -6 -2 -5 -13z"/>
<path d="M1921 1044 c0 -11 3 -14 6 -6 3 7 2 16 -1 19 -3 4 -6 -2 -5 -13z"/>
<path d="M2496 1011 c-4 -7 -5 -15 -2 -18 9 -9 19 4 14 18 -4 11 -6 11 -12 0z"/>
<path d="M1874 944 c-4 -10 -9 -22 -11 -26 -2 -5 0 -8 6 -8 11 0 26 39 17 47
-3 3 -9 -3 -12 -13z"/>
<path d="M2600 900 c0 -5 5 -10 10 -10 6 0 10 5 10 10 0 6 -4 10 -10 10 -5 0
-10 -4 -10 -10z"/>
<path d="M1905 890 c3 -5 8 -10 11 -10 2 0 4 5 4 10 0 6 -5 10 -11 10 -5 0 -7
-4 -4 -10z"/>
<path d="M1975 877 c-4 -10 -5 -21 -1 -24 10 -10 18 4 13 24 -4 17 -4 17 -12
0z"/>
<path d="M2241 864 c0 -11 3 -14 6 -6 3 7 2 16 -1 19 -3 4 -6 -2 -5 -13z"/>
<path d="M2592 830 c0 -14 2 -19 5 -12 2 6 2 18 0 25 -3 6 -5 1 -5 -13z"/>
<path d="M2255 801 c-3 -5 -1 -12 5 -16 5 -3 10 1 10 9 0 18 -6 21 -15 7z"/>
<path d="M1831 734 c0 -11 3 -14 6 -6 3 7 2 16 -1 19 -3 4 -6 -2 -5 -13z"/>
<path d="M2571 554 c0 -11 3 -14 6 -6 3 7 2 16 -1 19 -3 4 -6 -2 -5 -13z"/>
<path d="M2385 60 c3 -5 8 -10 11 -10 2 0 4 5 4 10 0 6 -5 10 -11 10 -5 0 -7
-4 -4 -10z"/>
<path d="M2380 15 c0 -8 5 -15 10 -15 6 0 10 7 10 15 0 8 -4 15 -10 15 -5 0
-10 -7 -10 -15z"/>
</g>
</svg>
