<?xml version="1.0" standalone="no"?>
<!DOCTYPE svg PUBLIC "-//W3C//DTD SVG 20010904//EN"
 "http://www.w3.org/TR/2001/REC-SVG-20010904/DTD/svg10.dtd">
<svg version="1.0" xmlns="http://www.w3.org/2000/svg"
 width="300.000000pt" height="200.000000pt" viewBox="0 0 300.000000 200.000000"
 preserveAspectRatio="xMidYMid meet">
<metadata>
Created by potrace 1.10, written by Peter Selinger 2001-2011
</metadata>
<g transform="translate(0.000000,200.000000) scale(0.100000,-0.100000)"
fill="#000000" stroke="none">
<path d="M1175 1895 c-39 -20 -95 -83 -95 -107 0 -11 5 -16 10 -13 6 3 10 1
10 -4 0 -6 -7 -11 -15 -11 -8 0 -15 -5 -15 -11 0 -6 -14 2 -31 19 -17 17 -37
28 -44 26 -7 -3 -16 -1 -20 5 -3 6 -20 11 -37 11 -24 0 -42 -12 -85 -55 -36
-38 -53 -64 -53 -81 0 -21 -3 -24 -21 -19 -54 18 -139 -31 -139 -80 0 -44 32
-69 94 -72 46 -2 61 2 82 20 14 12 26 31 26 42 2 19 9 20 106 20 102 0 104 0
129 29 20 24 24 37 20 67 -3 20 -1 41 3 46 4 4 10 26 13 48 3 22 3 34 0 28 -2
-7 -9 -13 -14 -13 -6 0 -5 8 1 20 6 11 15 18 20 15 6 -3 20 3 32 15 37 34 91
45 135 29 21 -8 38 -21 38 -29 0 -13 25 -30 65 -44 8 -3 25 -13 38 -22 21 -15
22 -15 16 0 -3 9 -10 13 -15 10 -5 -3 -9 2 -9 10 0 9 5 16 12 16 6 0 8 3 5 6
-4 4 -13 2 -21 -5 -11 -9 -15 -5 -20 24 -4 19 -11 36 -16 36 -17 2 -24 5 -64
22 -48 21 -102 22 -141 2z m45 -5 c-8 -5 -19 -10 -25 -10 -5 0 -3 5 5 10 8 5
20 10 25 10 6 0 3 -5 -5 -10z m74 4 c23 -9 20 -23 -4 -17 -11 3 -20 9 -20 14
0 11 3 11 24 3z m-141 -38 c-15 -13 -30 -22 -32 -20 -6 5 39 44 51 44 5 0 -4
-11 -19 -24z m187 9 c11 -13 10 -14 -4 -9 -9 3 -16 10 -16 15 0 13 6 11 20 -6z
m47 -51 c-2 -3 -16 0 -30 7 -23 10 -24 12 -8 28 15 16 17 16 29 -7 8 -13 12
-26 9 -28z m-424 -36 c12 -7 28 -12 36 -13 8 0 19 -8 25 -19 6 -10 21 -29 34
-42 26 -27 27 -42 6 -72 -14 -20 -23 -22 -113 -22 -103 0 -112 4 -125 48 -6
17 0 29 23 53 17 17 31 34 31 39 0 10 40 40 53 40 5 0 18 -5 30 -12z m137 -38
c0 -5 -4 -10 -10 -10 -5 0 -10 5 -10 10 0 6 5 10 10 10 6 0 10 -4 10 -10z
m-309 -129 c52 -52 33 -81 -53 -81 -46 0 -59 4 -68 19 -13 26 -14 24 13 53 40
46 68 48 108 9z"/>
<path d="M915 1729 c-4 -6 -7 -25 -7 -44 0 -36 8 -55 22 -55 5 0 5 12 1 28 -5
15 -5 36 0 47 4 11 8 23 8 28 1 11 -17 8 -24 -4z"/>
<path d="M961 1733 c0 -4 4 -17 8 -28 5 -11 4 -33 0 -48 -6 -20 -5 -27 4 -24
26 8 26 96 -1 105 -7 2 -12 0 -11 -5z"/>
<path d="M718 1593 c12 -2 32 -2 45 0 12 2 2 4 -23 4 -25 0 -35 -2 -22 -4z"/>
<path d="M723 1573 c15 -2 37 -2 50 0 12 2 0 4 -28 4 -27 0 -38 -2 -22 -4z"/>
<path d="M723 1553 c15 -2 37 -2 50 0 12 2 0 4 -28 4 -27 0 -38 -2 -22 -4z"/>
<path d="M1663 1864 c-11 -29 14 -40 94 -39 76 0 78 1 78 25 0 25 -2 25 -83
27 -64 1 -85 -2 -89 -13z m158 -17 c-13 -13 -26 -3 -16 12 3 6 11 8 17 5 6 -4
6 -10 -1 -17z m-121 3 c0 -5 -4 -10 -9 -10 -6 0 -13 5 -16 10 -3 6 1 10 9 10
9 0 16 -4 16 -10z m40 0 c0 -5 -4 -10 -10 -10 -5 0 -10 5 -10 10 0 6 5 10 10
10 6 0 10 -4 10 -10z m40 0 c0 -5 -4 -10 -10 -10 -5 0 -10 5 -10 10 0 6 5 10
10 10 6 0 10 -4 10 -10z"/>
<path d="M1925 1840 c3 -5 0 -10 -8 -10 -19 0 -29 -26 -14 -37 18 -13 64 -16
72 -4 10 18 65 12 95 -9 16 -11 36 -35 44 -52 28 -55 15 -151 -16 -120 -9 9
-9 15 0 24 18 18 15 42 -7 62 -19 17 -21 17 -42 -2 -16 -16 -20 -27 -15 -46 6
-24 4 -26 -23 -26 -16 0 -36 -3 -45 -6 -22 -8 -20 -51 3 -63 24 -13 119 -7
134 8 14 14 47 15 47 1 0 -5 -4 -10 -10 -10 -5 0 -10 -11 -10 -24 l0 -25 -405
1 c-223 0 -405 4 -405 9 0 4 5 11 10 14 15 9 12 65 -4 71 -8 3 -16 18 -19 34
-5 24 -11 28 -49 32 -52 6 -68 -5 -68 -43 0 -37 -17 -38 -23 -1 -3 15 -3 1 -2
-31 2 -32 8 -63 14 -70 8 -10 2 -13 -27 -11 -20 1 -38 2 -40 3 -1 0 4 11 13
24 14 22 13 25 -10 47 l-25 23 -25 -23 c-22 -21 -23 -25 -10 -40 8 -9 15 -21
15 -26 0 -5 -41 -10 -92 -12 -50 -2 -99 -7 -109 -13 -10 -5 -40 -9 -68 -9 -47
0 -51 -2 -57 -27 -3 -16 -10 -38 -16 -50 -15 -30 12 -62 50 -61 59 1 68 -2 68
-22 0 -16 -7 -20 -32 -20 -36 0 -68 -29 -58 -54 6 -15 19 -21 69 -28 19 -3 20
-11 20 -297 l0 -293 25 -22 c24 -20 34 -21 210 -19 102 1 204 0 228 -3 36 -5
40 -7 28 -19 -11 -12 -56 -14 -239 -12 -197 2 -228 5 -245 20 -10 9 -33 17
-50 17 -31 0 -42 13 -22 25 15 9 40 73 40 102 0 13 -5 34 -11 45 -8 16 -8 31
1 59 13 39 5 89 -21 130 -15 24 -45 -3 -41 -36 2 -15 -2 -32 -10 -37 -10 -7
-8 -8 5 -4 16 5 18 2 12 -26 -4 -18 -12 -40 -18 -49 -7 -11 -7 -26 1 -48 8
-21 8 -40 2 -57 -6 -14 -7 -50 -4 -80 l7 -54 48 0 49 0 0 -125 0 -126 -107 3
-108 3 1 53 c2 48 0 52 -18 46 -28 -8 -68 21 -68 51 0 36 36 68 67 60 22 -5
25 -3 20 14 -5 19 -1 21 43 21 27 0 51 4 55 9 3 5 0 30 -7 55 -9 33 -9 51 -1
69 9 19 9 35 0 63 -9 29 -9 38 1 42 7 2 12 8 12 14 0 6 -8 4 -17 -5 -15 -13
-18 -32 -17 -116 1 -96 0 -101 -20 -102 -12 -1 -25 -1 -30 0 -5 1 -17 -6 -28
-16 -18 -16 -48 -18 -316 -20 -162 -2 -297 -5 -300 -8 -3 -3 122 -5 278 -5
l283 0 -21 -23 c-12 -13 -22 -35 -22 -49 0 -28 41 -78 65 -78 10 0 15 -10 15
-33 0 -18 7 -43 16 -55 14 -20 23 -22 119 -22 134 0 135 1 132 151 l-2 109
243 0 c137 0 242 -4 242 -9 0 -5 -14 -14 -30 -20 -37 -12 -54 -49 -34 -72 13
-14 42 -16 218 -15 l204 2 1 -115 c1 -63 6 -122 12 -132 22 -42 91 -31 109 17
6 14 10 84 10 155 0 79 4 129 10 129 6 0 10 -32 10 -75 0 -83 18 -115 63 -115
27 0 57 28 57 53 0 9 5 17 10 17 23 0 9 -46 -20 -65 -17 -11 -33 -30 -36 -42
-8 -31 -10 -143 -3 -143 4 0 10 -11 13 -25 6 -25 48 -52 76 -50 82 5 103 35
101 145 -2 77 -21 125 -52 125 -8 0 -16 14 -19 35 -7 46 -21 69 -48 75 -26 5
-72 -30 -72 -56 0 -10 -4 -19 -10 -19 -6 0 -10 31 -10 73 0 59 -4 77 -18 90
-26 24 -79 22 -92 -2 -5 -11 -11 -81 -12 -156 -2 -126 -8 -160 -22 -136 -3 5
-7 60 -7 122 -2 130 -9 149 -69 175 -22 10 -40 21 -40 26 0 4 116 8 258 8
l257 0 -3 -98 c-3 -93 -2 -99 22 -125 23 -24 32 -27 98 -28 40 -1 80 -2 88 -3
8 0 21 7 28 17 7 9 17 15 22 12 14 -8 23 78 17 155 l-5 70 285 0 c158 0 284 2
281 5 -3 3 -125 6 -271 6 -149 1 -264 5 -261 10 3 5 -3 6 -12 2 -13 -5 -11 3
9 38 14 24 29 63 33 87 l7 42 -38 0 c-21 0 -49 -9 -65 -20 l-29 -21 -27 55
c-15 30 -33 57 -40 60 -13 5 -45 -32 -57 -66 -4 -10 -14 -18 -24 -18 -16 0
-16 -2 -3 -11 11 -8 8 -9 -14 -4 -50 11 -57 26 -55 124 l1 90 32 -12 c44 -17
112 -16 108 2 -3 14 15 31 33 31 6 0 4 -4 -4 -9 -8 -5 -16 -30 -19 -56 -3 -40
0 -51 22 -74 23 -24 33 -27 84 -25 31 1 76 3 99 3 88 2 112 84 47 159 -19 23
-43 42 -52 42 -9 0 -25 7 -35 14 -9 7 -28 11 -41 9 -20 -4 -24 -1 -22 13 2 11
1 13 -1 7 -3 -7 -8 -13 -13 -13 -13 0 1 32 19 48 14 11 14 11 -1 6 -24 -8 -23
4 3 25 18 14 20 21 10 39 -17 31 -16 32 48 32 50 0 62 4 85 26 36 37 33 71
-10 127 -48 61 -110 85 -161 60 -19 -9 -41 -27 -50 -40 l-15 -23 -17 32 -16
33 35 19 c30 15 75 22 171 25 22 1 32 28 19 52 -9 16 -22 19 -84 19 l-74 0 -4
30 c-3 18 0 31 9 34 7 3 13 14 13 24 0 36 -26 45 -119 44 l-89 -1 0 49 c0 58
-29 113 -76 141 -33 20 -76 28 -46 9 12 -8 10 -10 -9 -10 -17 0 -22 4 -17 16
5 13 1 15 -19 12 -14 -3 -25 -1 -25 3 0 5 -12 9 -26 9 -14 0 -23 -4 -19 -10z
m36 -7 c0 -5 2 -16 4 -26 2 -13 -1 -17 -12 -13 -8 3 -24 6 -35 6 -19 0 -19 1
3 20 25 21 39 25 40 13z m39 -13 c0 -5 -4 -10 -10 -10 -5 0 -10 5 -10 10 0 6
5 10 10 10 6 0 10 -4 10 -10z m110 -45 c19 -19 31 -35 27 -35 -4 0 -24 16 -44
35 -20 19 -33 35 -27 35 6 0 25 -16 44 -35z m35 -55 c3 -5 1 -10 -4 -10 -6 0
-11 5 -11 10 0 6 2 10 4 10 3 0 8 -4 11 -10z m-45 -65 c0 -4 -7 -5 -14 -2 -10
4 -13 1 -9 -9 5 -14 3 -14 -15 -3 -19 12 -20 15 -5 31 13 15 17 15 29 3 8 -7
14 -17 14 -20z m55 15 c3 -5 1 -10 -4 -10 -6 0 -11 5 -11 10 0 6 2 10 4 10 3
0 8 -4 11 -10z m-920 -50 c0 -13 -6 -25 -12 -27 -9 -3 -13 6 -13 27 0 21 4 30
13 28 6 -3 12 -15 12 -28z m22 -17 c-3 -10 -5 -2 -5 17 0 19 2 27 5 18 2 -10
2 -26 0 -35z m32 15 c-1 -31 -1 -31 -8 -8 -5 14 -6 28 -4 33 9 15 13 6 12 -25z
m851 -19 c-7 -11 -14 -19 -16 -16 -7 7 7 37 17 37 6 0 5 -9 -1 -21z m-46 -7
c13 -22 -13 -33 -70 -30 -47 2 -59 7 -62 21 -3 15 5 17 62 17 36 0 67 -4 70
-8z m254 -9 c-2 -11 -14 -19 -31 -21 -31 -4 -37 -22 -8 -22 25 0 37 -18 22
-33 -8 -8 -16 -5 -31 11 -26 27 -50 28 -84 1 -30 -24 -69 -22 -74 4 -3 13 3
17 27 17 17 0 31 5 31 10 0 6 -6 10 -14 10 -17 0 -38 24 -29 33 3 4 49 7 100
7 85 0 94 -2 91 -17z m-1020 -34 c-1 -13 -7 -23 -13 -22 -13 3 -18 30 -11 50
10 24 29 1 24 -28z m-231 17 c-4 -10 -1 -13 9 -9 14 5 14 3 3 -15 -12 -20 -15
-20 -31 -5 -17 15 -17 17 0 29 22 17 25 17 19 0z m114 -8 l10 -23 -5 23 c-2
12 0 22 5 22 10 0 13 -43 3 -52 -13 -14 -44 6 -44 28 0 30 18 31 31 2z m51
-12 c2 -19 0 -32 -4 -30 -4 3 -8 0 -8 -6 0 -6 -5 -8 -11 -4 -8 5 -8 9 1 14 7
5 11 19 8 34 -3 14 -2 26 2 26 4 0 10 -15 12 -34z m28 9 c0 -14 -4 -25 -10
-25 -5 0 -10 11 -10 25 0 14 5 25 10 25 6 0 10 -11 10 -25z m1018 -71 c26 -29
30 -39 22 -55 -9 -15 -22 -19 -68 -19 -59 0 -82 11 -82 40 0 15 37 54 52 55 3
0 10 3 14 8 14 14 31 7 62 -29z m-163 6 c3 -5 1 -10 -4 -10 -6 0 -11 5 -11 10
0 6 2 10 4 10 3 0 8 -4 11 -10z m-27 -22 c9 -9 12 -108 12 -385 0 -298 3 -373
13 -373 7 0 30 -9 51 -20 41 -20 56 -19 56 6 0 19 38 94 48 94 11 0 52 -87 52
-110 0 -19 2 -19 23 -6 28 19 109 48 115 42 8 -9 -31 -110 -52 -131 -19 -19
-21 -30 -18 -129 4 -139 -1 -146 -117 -146 -117 0 -122 6 -120 142 1 94 -1
110 -19 133 -11 14 -23 31 -25 38 -3 9 -8 9 -18 0 -19 -18 -1219 -19 -1237 -1
-17 17 -17 829 0 846 17 17 1219 17 1236 0z m-1273 -7 c6 -1 9 -22 9 -48 l-1
-48 -57 -3 c-34 -2 -56 1 -56 8 0 5 -1 13 -2 18 -1 4 11 9 27 12 16 3 27 10
25 15 -3 6 -10 9 -17 7 -17 -4 -30 28 -15 37 8 5 36 6 87 2z m1653 -8 c-3 -15
-16 -19 -74 -21 -65 -3 -72 -1 -77 18 -5 19 -1 20 75 20 70 0 79 -2 76 -17z
m-322 -48 c13 -13 13 -17 -5 -37 l-21 -22 0 37 c0 41 4 44 26 22z m85 -36 c49
-26 42 -97 -11 -119 -69 -29 -122 63 -64 109 30 24 46 26 75 10z m204 -23 c21
-8 41 -19 43 -26 2 -6 15 -22 28 -35 29 -30 30 -45 3 -79 -20 -26 -24 -27
-111 -24 -84 3 -92 5 -110 29 -16 20 -17 30 -8 53 5 15 19 30 30 33 11 3 20
10 20 16 0 17 32 47 49 47 9 0 34 -7 56 -14z m-1605 -86 c0 -17 -7 -20 -39
-20 -40 0 -57 11 -46 30 3 6 24 10 46 10 32 0 39 -3 39 -20z m1371 -30 c15 0
29 -3 32 -7 2 -5 2 -3 1 4 -2 7 1 15 5 18 5 2 11 -9 15 -25 4 -22 15 -35 41
-47 30 -14 36 -22 33 -44 -1 -15 4 -34 11 -43 9 -10 12 -29 8 -50 -3 -19 -1
-36 4 -38 5 -2 -2 -16 -16 -32 -14 -16 -25 -24 -25 -19 0 6 7 16 15 23 8 7 15
18 15 24 0 6 -10 -1 -21 -16 -22 -30 -70 -49 -112 -44 -15 2 -31 -2 -35 -10
-6 -10 -11 -9 -27 3 -19 15 -19 15 4 8 16 -5 21 -4 17 4 -4 6 -16 11 -27 11
-17 0 -19 7 -19 61 0 48 3 60 14 56 7 -3 19 -1 25 4 8 6 8 5 1 -3 -14 -17 -12
-48 3 -49 60 -5 150 0 159 9 17 17 1 45 -22 39 -23 -6 -24 -4 -7 23 18 30 -4
39 -78 36 -95 -4 -96 -4 -94 75 l2 68 25 -19 c13 -11 37 -20 53 -20z m185
-128 c-2 -1 -13 -4 -25 -7 -22 -4 -27 9 -14 40 5 15 8 15 24 -6 10 -13 16 -25
15 -27z m-236 -2 c0 -5 -4 -10 -10 -10 -5 0 -10 5 -10 10 0 6 5 10 10 10 6 0
10 -4 10 -10z m45 0 c3 -5 -1 -10 -9 -10 -9 0 -16 5 -16 10 0 6 4 10 9 10 6 0
13 -4 16 -10z m45 0 c0 -5 -7 -10 -16 -10 -8 0 -12 5 -9 10 3 6 10 10 16 10 5
0 9 -4 9 -10z m40 0 c0 -5 -4 -10 -10 -10 -5 0 -10 5 -10 10 0 6 5 10 10 10 6
0 10 -4 10 -10z m-90 -60 c0 -5 -4 -10 -9 -10 -6 0 -13 5 -16 10 -3 6 1 10 9
10 9 0 16 -4 16 -10z m40 0 c0 -5 -4 -10 -10 -10 -5 0 -10 5 -10 10 0 6 5 10
10 10 6 0 10 -4 10 -10z m40 0 c0 -5 -4 -10 -10 -10 -5 0 -10 5 -10 10 0 6 5
10 10 10 6 0 10 -4 10 -10z m45 0 c-3 -5 -10 -10 -16 -10 -5 0 -9 5 -9 10 0 6
7 10 16 10 8 0 12 -4 9 -10z m130 -74 c22 -8 44 -22 50 -32 5 -10 18 -25 28
-32 22 -17 22 -60 0 -84 -13 -15 -32 -18 -106 -18 -98 0 -127 13 -127 55 0 23
86 125 105 125 6 0 28 -7 50 -14z m-1684 -143 c-11 -29 -11 -43 -1 -74 11 -32
11 -46 0 -79 -7 -22 -17 -40 -22 -40 -11 0 -10 7 4 47 10 26 9 41 -1 69 -11
30 -11 44 0 76 10 31 10 46 0 74 -7 18 -9 39 -5 46 4 6 13 -8 22 -36 13 -40
13 -53 3 -83z m1452 90 c-7 -2 -19 -2 -25 0 -7 3 -2 5 12 5 14 0 19 -2 13 -5z
m-613 -375 l0 -48 -130 0 -130 0 0 48 0 47 130 0 130 0 0 -47z m515 42 c3 -5
1 -10 -5 -10 -6 0 -9 -4 -5 -10 3 -6 -83 -8 -235 -7 -152 1 -240 6 -240 12 -1
15 58 20 277 23 127 1 204 -2 208 -8z m-267 -83 c6 -7 12 -49 14 -92 3 -77 4
-80 27 -80 19 0 27 7 33 32 9 35 41 52 63 33 10 -8 15 -31 15 -61 0 -44 2 -49
23 -49 39 0 47 -19 47 -104 0 -94 -13 -116 -69 -116 -67 0 -82 28 -74 134 6
75 7 77 34 83 27 5 29 9 29 53 0 32 -5 50 -14 53 -20 8 -44 -14 -48 -43 -2
-18 -10 -26 -29 -28 -38 -4 -48 15 -51 103 -3 78 -4 80 -28 80 l-25 0 -5 -153
c-5 -158 -9 -171 -50 -172 -34 0 -40 22 -40 141 0 65 -2 123 -5 131 -4 10 -47
12 -215 10 -197 -3 -210 -2 -210 15 0 17 14 18 197 18 257 0 243 9 243 -166 0
-121 1 -128 21 -134 12 -4 25 -3 29 2 5 4 10 75 12 156 2 118 6 150 18 157 21
14 46 12 58 -3z"/>
<path d="M1221 1624 c0 -11 3 -14 6 -6 3 7 2 16 -1 19 -3 4 -6 -2 -5 -13z"/>
<path d="M1311 1554 c0 -11 3 -14 6 -6 3 7 2 16 -1 19 -3 4 -6 -2 -5 -13z"/>
<path d="M911 1218 c2 -123 6 -244 9 -271 4 -26 3 -50 -2 -53 -4 -3 -8 -30 -8
-60 l0 -54 585 0 585 0 0 330 0 329 -307 1 -307 0 -33 -31 c-26 -26 -41 -32
-78 -33 -24 -1 -45 -5 -45 -11 0 -5 23 -10 50 -10 54 0 68 -11 23 -18 -22 -3
-20 -4 10 -6 57 -2 42 -26 -15 -26 -26 0 -49 -3 -53 -7 -10 -10 -35 2 -35 17
0 8 14 15 33 18 l32 4 -32 1 c-17 1 -39 -5 -47 -14 -18 -17 -67 -15 -73 3 -3
8 6 10 29 7 22 -4 38 -1 45 8 9 10 3 13 -33 13 -24 0 -44 5 -44 10 0 6 21 10
45 10 37 0 42 2 30 12 -23 16 -1 28 55 29 94 2 110 4 110 14 0 6 -95 10 -266
10 l-266 0 3 -222z m911 59 c-114 -113 -144 -139 -152 -127 -6 10 -26 15 -62
15 -44 0 -57 5 -80 28 -24 24 -30 26 -47 15 -28 -17 -38 -2 -15 24 14 17 15
19 2 10 -9 -8 -42 -14 -72 -14 -42 -1 -53 -4 -49 -14 4 -10 -3 -14 -23 -14
-23 0 -26 2 -14 11 11 8 12 12 3 16 -32 13 -7 23 57 23 63 0 70 2 70 20 0 11
4 20 10 20 5 0 7 -7 4 -15 -4 -11 0 -15 16 -15 14 0 20 5 17 13 -3 7 4 19 14
26 11 6 17 16 14 22 -7 10 12 12 122 10 64 -1 74 1 83 20 9 15 8 24 -1 35 -6
8 -9 17 -6 21 4 3 56 7 117 8 60 1 113 5 117 8 3 4 9 5 12 2 3 -3 -59 -70
-137 -148z m-122 135 c0 -4 -16 -12 -35 -18 -37 -12 -47 -2 -17 15 20 12 52
14 52 3z m-456 -12 c-6 -6 -29 -11 -50 -10 -202 3 -224 3 -238 -10 -13 -10
-16 -10 -16 2 0 8 3 18 7 21 3 4 74 7 157 7 104 0 147 -3 140 -10z m366 3 c0
-5 -36 -8 -80 -8 -44 0 -80 3 -80 8 0 4 36 7 80 7 44 0 80 -3 80 -7z m444 -50
c6 -68 7 -511 1 -533 -4 -13 -49 -15 -337 -12 -182 1 -334 5 -337 7 -11 12 61
65 89 65 34 0 47 15 30 35 -10 12 30 57 229 255 232 232 242 240 280 240 l39
0 6 -57z m-884 12 c0 -12 -18 -15 -99 -15 -91 0 -121 7 -104 24 3 3 51 6 105
6 80 0 98 -3 98 -15z m450 0 c0 -12 -18 -15 -100 -15 -82 0 -100 3 -100 15 0
12 18 15 100 15 82 0 100 -3 100 -15z m90 0 c0 -16 -55 -22 -64 -6 -8 13 5 21
36 21 18 0 28 -5 28 -15z m-750 -45 c0 -16 -4 -32 -10 -35 -6 -4 -10 10 -10
35 0 25 4 39 10 35 6 -3 10 -19 10 -35z m150 0 c0 -6 -30 -10 -70 -10 -40 0
-70 4 -70 10 0 6 30 10 70 10 40 0 70 -4 70 -10z m80 -6 c0 -11 -5 -14 -16
-10 -9 3 -22 6 -30 6 -8 0 -14 5 -14 10 0 6 14 10 30 10 21 0 30 -5 30 -16z
m305 1 c0 -5 -10 -11 -22 -13 -16 -2 -23 2 -23 13 0 11 7 15 23 13 12 -2 22
-7 22 -13z m-191 -26 c26 -12 26 -29 0 -29 -8 0 -14 6 -14 14 0 8 -6 17 -12
19 -7 3 -10 6 -6 6 4 1 18 -4 32 -10z m-196 -18 c2 -7 -19 -11 -67 -11 -63 0
-82 6 -66 21 10 10 129 1 133 -10z m80 2 c2 -9 -7 -13 -27 -13 -30 0 -39 9
-24 24 11 10 46 3 51 -11z m80 0 c2 -9 -7 -13 -27 -13 -21 0 -31 5 -31 16 0
19 51 16 58 -3z m110 -1 c2 -7 -6 -12 -17 -12 -21 0 -27 11 -14 24 9 9 26 2
31 -12z m50 0 c2 -7 -6 -12 -17 -12 -21 0 -27 11 -14 24 9 9 26 2 31 -12z
m-481 -34 c-3 -8 -6 -5 -6 6 -1 11 2 17 5 13 3 -3 4 -12 1 -19z m286 5 c-13
-2 -33 -2 -45 0 -13 2 -3 4 22 4 25 0 35 -2 23 -4z m-80 -21 c-2 -8 14 -12 47
-12 28 0 50 -4 50 -10 0 -5 18 -10 41 -10 54 0 47 -22 -7 -24 -30 -1 -41 2
-40 13 1 7 -5 16 -12 18 -7 3 -10 -1 -6 -11 4 -11 0 -16 -14 -16 -11 0 -29
-11 -40 -25 -19 -23 -26 -25 -111 -25 -76 0 -91 3 -91 16 0 13 14 15 95 12 99
-3 109 1 92 39 -12 27 -27 31 -106 26 -70 -4 -96 1 -86 17 9 15 191 7 188 -8z
m137 3 c0 -8 -7 -15 -15 -15 -8 0 -15 7 -15 15 0 8 7 15 15 15 8 0 15 -7 15
-15z m-330 -52 c0 -12 -4 -25 -10 -28 -6 -4 -10 11 -10 37 0 31 3 39 10 28 5
-8 10 -25 10 -37z m180 7 c0 -6 -36 -9 -85 -9 -47 0 -85 5 -85 10 0 5 38 9 85
9 49 0 85 -4 85 -10z m258 -2 c-7 -20 -48 -23 -48 -4 0 11 9 16 26 16 16 0 24
-5 22 -12z m60 0 c-3 -7 -11 -13 -18 -13 -7 0 -15 6 -17 13 -3 7 4 12 17 12
13 0 20 -5 18 -12z m60 0 c-3 -7 -11 -13 -18 -13 -7 0 -15 6 -17 13 -3 7 4 12
17 12 13 0 20 -5 18 -12z m-250 -45 c-11 -14 -88 -18 -88 -5 0 17 15 23 57 21
34 -2 40 -5 31 -16z m80 11 c36 -10 25 -24 -18 -24 -29 0 -40 4 -40 15 0 16
20 19 58 9z m240 -11 c3 -10 -21 -13 -97 -13 -93 0 -113 5 -94 24 13 12 186 2
191 -11z m80 0 c2 -9 -7 -13 -27 -13 -30 0 -46 11 -34 24 11 11 56 2 61 -11z
m-308 -21 c15 6 26 5 30 -3 5 -7 46 -10 129 -7 66 1 121 0 121 -3 0 -13 -190
-190 -198 -185 -5 3 -54 7 -108 10 -55 2 -89 2 -76 -1 14 -3 22 -12 22 -24 0
-17 7 -19 68 -17 l67 2 -62 3 c-89 5 -78 23 13 23 86 0 85 3 15 -73 l-35 -37
-143 1 c-78 0 -147 -2 -153 -6 -25 -15 -6 14 33 53 32 32 51 42 75 42 18 0 32
5 32 11 0 6 -9 9 -20 6 -23 -6 -27 11 -5 19 8 4 15 12 15 20 0 8 4 14 9 14 5
0 25 16 44 35 29 29 32 35 16 35 -10 0 -19 5 -19 10 0 6 16 10 35 10 19 0 35
4 35 9 0 4 -19 5 -42 1 -23 -5 -55 -4 -72 2 -17 5 -37 12 -45 14 -49 16 103
46 164 33 17 -3 42 -2 55 3z m-298 -27 c-1 -5 -25 -10 -53 -10 -45 0 -51 -3
-56 -24 -4 -15 -2 -26 5 -29 7 -2 12 -10 12 -18 0 -16 26 -19 35 -4 3 6 11 10
17 10 19 0 -23 -39 -46 -42 -12 -2 -21 -10 -21 -20 0 -10 -5 -22 -11 -28 -8
-8 -11 11 -12 67 -1 69 2 80 21 96 24 19 114 21 109 2z m58 0 c0 -8 -9 -15
-20 -15 -11 0 -20 7 -20 15 0 8 9 15 20 15 11 0 20 -7 20 -15z m-35 -44 c3 -5
-5 -11 -17 -13 -36 -5 -98 3 -98 13 0 12 107 12 115 0z m65 -1 c0 -5 -11 -10
-25 -10 -14 0 -25 5 -25 10 0 6 11 10 25 10 14 0 25 -4 25 -10z m63 -7 c-2 -7
2 -13 7 -13 6 0 10 -4 10 -10 0 -5 -9 -10 -19 -10 -11 0 -23 -5 -27 -12 -4 -7
-3 -8 4 -4 7 4 12 2 12 -3 0 -7 -33 -11 -91 -11 -57 0 -88 4 -84 10 3 6 25 10
48 10 38 0 40 1 21 15 -18 15 -18 15 6 14 53 -4 70 0 63 17 -5 12 0 15 23 12
17 -2 28 -8 27 -15z m-103 -88 c0 -8 5 -15 10 -15 6 0 10 7 10 15 0 8 9 15 20
15 26 0 26 -20 0 -27 -11 -3 -18 -9 -15 -13 3 -5 1 -11 -4 -14 -5 -3 -11 1
-15 9 -4 11 -22 15 -75 15 -65 0 -90 8 -74 24 3 3 37 6 75 6 54 0 68 -3 68
-15z m0 -45 c0 -6 -30 -10 -70 -10 -40 0 -70 4 -70 10 0 6 30 10 70 10 40 0
70 -4 70 -10z m390 0 c0 -5 -11 -10 -25 -10 -14 0 -25 5 -25 10 0 6 11 10 25
10 14 0 25 -4 25 -10z m-472 -20 l66 0 -37 -38 c-33 -33 -41 -37 -77 -34 -39
4 -40 5 -40 41 0 37 11 62 18 42 2 -6 32 -11 70 -11z"/>
<path d="M1516 1295 c-21 -32 -20 -35 8 -35 14 0 27 -4 30 -9 3 -5 28 -9 55
-9 54 -1 74 19 47 46 -21 21 -81 26 -96 7 -7 -8 -19 -15 -28 -15 -13 0 -12 3
3 20 10 11 13 20 8 20 -6 0 -18 -11 -27 -25z m72 -23 c2 -7 -6 -12 -17 -12
-21 0 -27 11 -14 24 9 9 26 2 31 -12z m60 0 c2 -7 -6 -12 -17 -12 -21 0 -27
11 -14 24 9 9 26 2 31 -12z"/>
<path d="M1173 1193 c9 -2 23 -2 30 0 6 3 -1 5 -18 5 -16 0 -22 -2 -12 -5z"/>
<path d="M1180 1087 c0 -9 17 -14 55 -16 44 -2 55 1 55 13 0 13 -12 16 -55 16
-39 0 -55 -4 -55 -13z"/>
<path d="M1305 1089 c-4 -6 -5 -13 -2 -16 7 -7 27 6 27 18 0 12 -17 12 -25 -2z"/>
<path d="M1350 1046 c0 -8 -10 -17 -22 -19 -13 -2 -2 -5 24 -6 26 0 49 3 52 8
3 4 -6 6 -19 3 -14 -2 -25 0 -25 6 0 6 10 13 23 15 19 4 18 4 -5 6 -18 1 -28
-4 -28 -13z"/>
<path d="M1298 993 c6 -2 18 -2 25 0 6 3 1 5 -13 5 -14 0 -19 -2 -12 -5z"/>
<path d="M1212 944 c-16 -19 -18 -25 -6 -20 8 3 18 6 20 6 2 0 4 7 4 15 0 21
76 20 97 -1 11 -11 19 -12 26 -5 16 16 3 22 -60 27 -53 5 -60 3 -81 -22z"/>
<path d="M1210 900 c0 -5 14 -10 30 -10 17 0 30 5 30 10 0 6 -13 10 -30 10
-16 0 -30 -4 -30 -10z"/>
<path d="M1180 1019 c0 -5 5 -7 10 -4 6 3 10 8 10 11 0 2 -4 4 -10 4 -5 0 -10
-5 -10 -11z"/>
<path d="M896 741 c-5 -8 157 -11 598 -11 333 0 606 3 606 8 0 12 -1196 16
-1204 3z"/>
<path d="M2298 658 l-3 -73 -22 35 c-13 19 -23 29 -23 21 0 -8 7 -23 17 -33 9
-10 13 -21 10 -24 -8 -8 -83 55 -92 76 -9 23 -75 62 -75 45 0 -25 19 -65 31
-65 8 0 8 4 -1 15 -6 8 -10 19 -8 26 2 6 35 -21 73 -60 69 -71 95 -86 95 -53
0 9 9 32 20 50 24 40 25 49 3 31 -15 -13 -16 -10 -10 28 4 24 3 44 -3 48 -5 3
-10 -24 -12 -67z"/>
<path d="M1564 678 l-29 -33 33 29 c30 28 37 36 29 36 -2 0 -16 -15 -33 -32z"/>
<path d="M2397 623 c-37 -36 -66 -67 -65 -69 2 -1 19 1 38 6 19 4 30 8 23 9
-22 2 18 71 42 71 5 0 15 11 22 25 6 14 10 25 10 25 -1 0 -33 -30 -70 -67z"/>
<path d="M2208 563 c6 -2 18 -2 25 0 6 3 1 5 -13 5 -14 0 -19 -2 -12 -5z"/>
<path d="M2304 435 c0 -49 1 -71 3 -48 2 23 2 64 0 90 -2 26 -3 8 -3 -42z"/>
<path d="M2300 328 c0 -4 16 -8 35 -8 19 0 35 2 35 4 0 2 -16 6 -35 8 -19 2
-35 0 -35 -4z"/>
<path d="M2215 1360 c-3 -5 1 -10 10 -10 9 0 13 5 10 10 -3 6 -8 10 -10 10 -2
0 -7 -4 -10 -10z"/>
<path d="M2176 1335 c-3 -8 -1 -15 3 -15 5 0 11 7 15 15 3 8 1 15 -3 15 -5 0
-11 -7 -15 -15z"/>
<path d="M2260 1336 c0 -9 5 -16 10 -16 6 0 10 4 10 9 0 6 -4 13 -10 16 -5 3
-10 -1 -10 -9z"/>
<path d="M2205 1330 c-4 -6 5 -10 19 -10 14 0 26 5 26 10 0 6 -9 10 -19 10
-11 0 -23 -4 -26 -10z"/>
<path d="M2170 1301 c0 -5 6 -14 14 -20 12 -10 13 -8 9 8 -5 21 -23 30 -23 12z"/>
<path d="M2210 1293 c0 -7 9 -13 20 -13 11 0 20 6 20 13 0 7 -9 13 -20 13 -11
0 -20 -6 -20 -13z"/>
<path d="M2260 1289 c0 -11 5 -17 10 -14 6 3 10 13 10 21 0 8 -4 14 -10 14 -5
0 -10 -9 -10 -21z"/>
<path d="M2218 1263 c7 -3 16 -2 19 1 4 3 -2 6 -13 5 -11 0 -14 -3 -6 -6z"/>
<path d="M2385 1308 c-8 -26 0 -101 12 -105 8 -3 11 15 12 56 0 55 -13 82 -24
49z m12 -20 c-3 -8 -6 -5 -6 6 -1 11 2 17 5 13 3 -3 4 -12 1 -19z m0 -70 c-3
-7 -5 -2 -5 12 0 14 2 19 5 13 2 -7 2 -19 0 -25z"/>
<path d="M2432 1290 c0 -19 2 -27 5 -17 2 9 2 25 0 35 -3 9 -5 1 -5 -18z"/>
<path d="M2459 1290 c-1 -16 -2 -43 -3 -60 0 -16 2 -30 6 -30 3 0 7 27 7 60 0
61 -8 85 -10 30z"/>
<path d="M2484 1230 c1 -39 16 -39 16 0 0 17 -4 30 -9 30 -4 0 -8 -13 -7 -30z"/>
<path d="M2362 1225 c0 -16 2 -22 5 -12 2 9 2 23 0 30 -3 6 -5 -1 -5 -18z"/>
<path d="M2428 1225 c2 -14 6 -25 8 -25 2 0 4 11 4 25 0 14 -4 25 -9 25 -4 0
-6 -11 -3 -25z"/>
<path d="M2412 924 c-32 -22 -30 -69 4 -91 24 -15 29 -15 53 -2 36 20 41 71 9
93 -28 20 -38 20 -66 0z m66 -17 c8 3 12 -6 12 -26 0 -17 -5 -31 -11 -31 -6 0
-8 9 -4 20 5 16 2 20 -19 20 -28 0 -29 1 -19 26 5 15 8 15 17 2 6 -8 17 -13
24 -11z m-61 -27 c0 -16 -4 -27 -9 -24 -10 6 -11 38 -1 47 9 10 10 10 10 -23z
m41 -22 c-2 -13 -7 -23 -13 -23 -5 0 -11 10 -13 23 -2 15 2 22 13 22 11 0 15
-7 13 -22z"/>
<path d="M2018 235 c-8 -8 3 -55 13 -55 5 0 9 14 9 30 0 28 -9 38 -22 25z"/>
<path d="M2033 125 c0 -27 2 -38 4 -22 2 15 2 37 0 50 -2 12 -4 0 -4 -28z"/>
<path d="M1453 1805 c-9 -26 7 -33 65 -32 50 2 57 5 57 22 0 18 -7 20 -58 22
-41 1 -60 -3 -64 -12z m31 -16 c-3 -5 -10 -7 -15 -3 -5 3 -7 10 -3 15 3 5 10
7 15 3 5 -3 7 -10 3 -15z m40 0 c-3 -5 -10 -7 -15 -3 -5 3 -7 10 -3 15 3 5 10
7 15 3 5 -3 7 -10 3 -15z m41 12 c3 -5 1 -12 -5 -16 -5 -3 -10 1 -10 9 0 18 6
21 15 7z"/>
<path d="M2207 1792 c-23 -25 -21 -37 9 -57 24 -16 26 -15 45 6 24 27 24 32 1
52 -24 22 -35 21 -55 -1z m43 -16 c14 -18 13 -19 -2 -13 -13 4 -15 2 -11 -9 5
-14 3 -14 -14 -4 -18 12 -19 14 -4 30 9 9 16 16 16 16 1 -1 7 -10 15 -20z"/>
<path d="M1549 1737 c-79 -75 -91 -127 -38 -171 17 -14 38 -26 46 -26 9 0 24
-7 34 -15 14 -14 19 -14 31 -2 7 8 34 16 60 19 48 6 66 17 86 54 25 46 -35
133 -108 158 -63 22 -71 20 -111 -17z m89 -3 c12 -8 26 -13 31 -9 6 3 15 0 21
-7 5 -7 21 -26 35 -41 50 -56 23 -107 -57 -107 -44 0 -48 2 -48 24 0 16 7 27
20 31 25 8 37 50 20 70 -15 18 -51 20 -68 3 -16 -16 -15 -43 2 -60 17 -18 31
-108 17 -108 -6 0 -11 9 -11 20 0 16 -7 20 -32 20 -36 0 -68 24 -68 52 0 28
18 58 35 58 8 0 15 5 15 10 0 13 45 60 57 60 5 0 19 -7 31 -16z m16 -57 c9
-14 7 -21 -7 -32 -33 -24 -71 11 -46 42 15 18 39 13 53 -10z"/>
<path d="M1870 1738 c-17 -29 -20 -30 -20 -11 0 29 -9 33 -47 17 -38 -16 -47
-54 -12 -54 11 0 18 -4 15 -9 -3 -5 11 -11 32 -15 26 -4 40 -2 48 9 7 9 14 11
20 5 15 -15 74 11 74 31 0 14 -66 59 -85 59 -3 0 -14 -15 -25 -32z m15 -34
c-21 -51 -29 -38 -8 16 9 23 19 38 21 32 1 -5 -4 -27 -13 -48z m-45 26 c0 -5
-8 -10 -17 -10 -15 0 -14 -2 3 -15 23 -17 3 -20 -28 -4 -21 11 -21 12 3 25 29
16 39 17 39 4z m124 -11 c13 -11 7 -16 -29 -24 l-30 -6 25 15 c25 15 25 15 3
16 -13 0 -23 5 -23 11 0 11 38 3 54 -12z"/>
<path d="M1326 1746 c3 -9 2 -16 -4 -16 -15 0 -23 -30 -12 -49 5 -10 21 -26
36 -35 25 -17 27 -17 53 8 15 15 30 24 34 21 4 -3 5 -2 2 1 -2 4 0 16 6 27 8
14 8 18 0 13 -7 -5 -10 1 -8 15 1 12 -4 23 -11 25 -7 1 -8 0 -2 -3 19 -9 10
-24 -10 -18 -11 4 -30 7 -43 9 -13 1 -28 6 -35 10 -8 5 -10 2 -6 -8z m78 -27
c14 -7 23 -16 20 -20 -2 -5 -16 -3 -30 3 -19 9 -30 9 -45 0 -23 -15 -29 -15
-29 -2 0 9 33 28 52 29 4 1 18 -4 32 -10z m-4 -37 c0 -5 -13 -9 -30 -9 -16 0
-30 4 -30 9 0 4 14 8 30 8 17 0 30 -4 30 -8z m-20 -22 c0 -5 -4 -10 -10 -10
-5 0 -10 5 -10 10 0 6 5 10 10 10 6 0 10 -4 10 -10z"/>
<path d="M2256 1705 c-36 -36 -12 -61 67 -67 30 -3 55 -12 70 -26 l23 -22 21
22 c33 36 39 73 14 90 -32 22 -173 24 -195 3z m191 -20 c8 -22 -4 -30 -21 -16
-10 8 -16 9 -21 1 -6 -10 -137 -14 -148 -4 -3 3 -3 12 0 20 8 21 181 20 190
-1z m-9 -46 c-6 -4 -13 -11 -17 -17 -4 -7 -12 -3 -20 10 -11 18 -11 20 3 15
11 -4 13 -2 9 9 -5 14 -3 14 15 3 13 -8 17 -16 10 -20z"/>
<path d="M508 1511 c-24 -23 -23 -27 11 -64 27 -28 32 -30 53 -18 13 7 32 24
42 38 19 26 19 26 -5 44 -30 23 -79 23 -101 0z m86 -7 c30 -12 16 -22 -23 -17
-23 3 -41 1 -45 -6 -5 -7 2 -9 22 -5 17 4 32 1 36 -5 5 -7 -3 -11 -21 -12 -23
0 -25 -2 -9 -8 11 -4 15 -10 9 -14 -5 -3 -22 7 -37 22 -26 27 -27 30 -9 40 20
12 54 14 77 5z"/>
<path d="M615 1420 c3 -5 -3 -10 -14 -10 -14 0 -19 -5 -14 -15 5 -14 8 -14 31
1 22 15 24 15 19 1 -4 -12 -2 -14 9 -10 14 5 14 3 3 -15 -11 -18 -14 -18 -24
-6 -6 9 -17 12 -28 8 -15 -6 -14 -8 9 -21 32 -16 48 -12 63 16 9 16 7 24 -11
41 -22 20 -54 28 -43 10z"/>
<path d="M537 1282 c-11 -12 -13 -22 -7 -32 16 -25 12 -28 -47 -28 -85 0 -85
0 -81 -24 3 -21 10 -24 73 -28 45 -4 64 -8 53 -14 -9 -4 -18 -16 -21 -27 -3
-10 -12 -19 -20 -19 -8 0 -22 -17 -30 -37 -12 -31 -13 -44 -3 -68 17 -42 49
-55 139 -55 107 0 147 22 147 81 0 10 5 19 12 19 7 0 6 5 -4 13 -8 6 -27 29
-42 49 -19 26 -42 42 -76 53 -31 10 -50 23 -53 36 -5 17 -1 19 31 18 39 -3 82
15 82 32 0 6 -5 19 -10 30 -15 27 -119 28 -143 1z m136 -16 c9 -22 -2 -26 -70
-26 -46 0 -63 4 -63 13 0 23 11 27 71 27 39 0 58 -4 62 -14z m-239 -77 c-3 -5
-10 -7 -15 -3 -5 3 -7 10 -3 15 3 5 10 7 15 3 5 -3 7 -10 3 -15z m46 12 c0 -6
-4 -13 -10 -16 -5 -3 -10 1 -10 9 0 9 5 16 10 16 6 0 10 -4 10 -9z m40 -7 c0
-8 -4 -12 -10 -9 -5 3 -10 10 -10 16 0 5 5 9 10 9 6 0 10 -7 10 -16z m41 3
c-1 -12 -15 -9 -19 4 -3 6 1 10 8 8 6 -3 11 -8 11 -12z m54 -58 c4 -6 13 -8
21 -5 8 3 18 0 24 -7 6 -7 21 -25 35 -40 25 -28 32 -62 17 -83 -15 -23 -50
-31 -124 -30 -83 2 -118 20 -118 58 0 26 18 58 33 58 7 0 20 14 29 30 13 23
24 30 47 30 16 0 33 -5 36 -11z"/>
<path d="M587 1040 c-8 -22 -12 -40 -8 -40 5 0 15 18 24 40 8 22 12 40 8 40
-5 0 -15 -18 -24 -40z"/>
<path d="M523 1058 c-31 -15 -29 -24 7 -37 17 -5 30 -6 30 -2 0 5 -10 12 -22
16 l-23 8 23 4 c12 2 22 9 22 14 0 11 -9 11 -37 -3z"/>
<path d="M630 1060 c0 -6 8 -10 18 -10 16 -1 16 -1 0 -14 -26 -19 -22 -27 7
-14 14 6 25 14 25 18 0 4 -11 12 -25 18 -15 7 -25 8 -25 2z"/>
<path d="M727 1192 l-27 -28 25 -24 26 -24 25 26 26 25 -24 27 -23 27 -28 -29z
m44 -22 c5 0 4 -6 -3 -14 -9 -9 -17 -10 -29 -3 -15 9 -15 11 0 26 12 12 17 13
19 4 2 -7 8 -13 13 -13z"/>
<path d="M414 973 c3 -3 -1 -15 -9 -26 -19 -28 -8 -112 22 -160 25 -39 77 -78
103 -76 11 1 10 3 -2 6 -10 2 -18 8 -18 13 0 13 38 -1 44 -16 7 -18 36 -18 36
0 0 7 9 16 20 19 11 3 20 1 20 -4 0 -5 -8 -9 -17 -10 -11 0 -13 -2 -5 -6 19
-7 66 27 54 39 -7 7 -17 6 -30 -1 -28 -15 -85 -14 -119 1 -38 17 -61 45 -73
91 -9 32 -9 41 4 50 21 17 8 79 -18 83 -10 1 -15 0 -12 -3z m28 -43 c4 -24 1
-29 -14 -27 -28 5 -32 16 -13 37 10 11 19 20 20 20 2 0 5 -13 7 -30z m-17 -80
c3 -5 1 -10 -4 -10 -6 0 -11 5 -11 10 0 6 2 10 4 10 3 0 8 -4 11 -10z m56 -94
c13 -8 21 -18 18 -20 -7 -7 -54 35 -67 61 -19 35 -14 41 7 7 11 -18 30 -39 42
-48z m179 -10 c0 -3 -4 -8 -10 -11 -5 -3 -10 -1 -10 4 0 6 5 11 10 11 6 0 10
-2 10 -4z m-80 -26 c0 -5 -4 -10 -10 -10 -5 0 -10 5 -10 10 0 6 5 10 10 10 6
0 10 -4 10 -10z"/>
<path d="M471 934 c0 -11 3 -14 6 -6 3 7 2 16 -1 19 -3 4 -6 -2 -5 -13z"/>
<path d="M546 892 c-3 -3 -6 -14 -6 -24 0 -16 8 -18 83 -16 74 3 82 5 82 23 0
18 -7 20 -77 22 -42 0 -79 -1 -82 -5z m24 -17 c0 -8 -4 -15 -10 -15 -5 0 -10
7 -10 15 0 8 5 15 10 15 6 0 10 -7 10 -15z m44 -6 c-3 -5 -10 -7 -15 -3 -5 3
-7 10 -3 15 3 5 10 7 15 3 5 -3 7 -10 3 -15z m43 -5 c-9 -9 -28 6 -21 18 4 6
10 6 17 -1 6 -6 8 -13 4 -17z m43 11 c0 -8 -4 -15 -10 -15 -5 0 -10 7 -10 15
0 8 5 15 10 15 6 0 10 -7 10 -15z"/>
<path d="M572 498 c-27 -27 -2 -73 35 -66 11 2 18 14 20 33 3 40 -29 59 -55
33z"/>
<path d="M710 420 c0 -46 3 -80 6 -77 8 7 6 148 -1 156 -3 2 -5 -33 -5 -79z"/>
<path d="M937 384 c-4 -4 -7 -13 -7 -21 0 -10 24 -13 106 -13 95 0 105 2 102
18 -3 14 -17 17 -99 20 -52 1 -98 0 -102 -4z m193 -16 c0 -4 -43 -7 -95 -6
-52 0 -92 5 -89 10 7 10 184 7 184 -4z"/>
<path d="M1185 380 c-4 -7 -3 -16 3 -22 14 -14 57 -6 57 12 0 18 -50 26 -60
10z m45 -10 c0 -5 -7 -10 -16 -10 -8 0 -12 5 -9 10 3 6 10 10 16 10 5 0 9 -4
9 -10z"/>
<path d="M1285 380 c-4 -7 -3 -16 3 -22 14 -14 57 -6 57 12 0 18 -50 26 -60
10z m45 -10 c0 -5 -7 -10 -16 -10 -8 0 -12 5 -9 10 3 6 10 10 16 10 5 0 9 -4
9 -10z"/>
<path d="M986 295 c-8 -23 9 -26 115 -23 76 2 94 6 94 18 0 23 -200 28 -209 5z
m194 -5 c0 -6 -39 -10 -90 -10 -50 0 -90 4 -90 9 0 6 40 10 90 10 51 0 90 -4
90 -9z"/>
<path d="M1247 303 c-17 -16 -5 -33 23 -33 23 0 30 4 30 20 0 14 -7 20 -23 20
-13 0 -27 -3 -30 -7z m43 -15 c0 -4 -9 -8 -20 -8 -11 0 -20 4 -20 9 0 6 9 9
20 8 11 -1 20 -5 20 -9z"/>
<path d="M1340 290 c0 -16 7 -20 30 -20 23 0 30 4 30 20 0 16 -7 20 -30 20
-23 0 -30 -4 -30 -20z m50 -2 c0 -4 -9 -8 -20 -8 -11 0 -20 4 -20 8 0 4 9 8
20 8 11 0 20 -4 20 -8z"/>
<path d="M932 213 c3 -16 16 -18 103 -18 87 0 100 2 103 18 3 15 -7 17 -103
17 -96 0 -106 -2 -103 -17z m193 -3 c4 -6 -28 -10 -89 -10 -57 0 -96 4 -96 10
0 6 36 10 89 10 50 0 93 -4 96 -10z"/>
<path d="M1185 220 c-4 -7 -3 -16 3 -22 14 -14 57 -6 57 12 0 18 -50 26 -60
10z m50 -10 c4 -6 -5 -10 -20 -10 -15 0 -24 4 -20 10 3 6 12 10 20 10 8 0 17
-4 20 -10z"/>
<path d="M1285 220 c-4 -7 -3 -16 3 -22 14 -14 57 -6 57 12 0 18 -50 26 -60
10z m45 -10 c0 -5 -9 -10 -21 -10 -11 0 -17 5 -14 10 3 6 13 10 21 10 8 0 14
-4 14 -10z"/>
<path d="M1450 210 c0 -16 7 -20 30 -20 23 0 30 4 30 20 0 16 -7 20 -30 20
-23 0 -30 -4 -30 -20z m45 0 c3 -5 -3 -10 -14 -10 -12 0 -21 5 -21 10 0 6 6
10 14 10 8 0 18 -4 21 -10z"/>
<path d="M980 20 c-883 -5 -829 -5 520 -6 828 0 1469 1 1425 3 -176 6 -1012 8
-1945 3z"/>
</g>
</svg>
